<?xml version="1.0" encoding="UTF-8"?>
<svg version="1.1" xmlns="http://www.w3.org/2000/svg" width="512" height="512">
<path d="M0 0 C0.93198715 -0.0071553 1.8639743 -0.01431061 2.82420349 -0.02168274 C3.83982361 -0.02437164 4.85544373 -0.02706055 5.90184021 -0.02983093 C7.51481239 -0.03968773 7.51481239 -0.03968773 9.16036987 -0.04974365 C12.72189912 -0.06946563 16.28338617 -0.0811384 19.84495544 -0.09111023 C21.672329 -0.09722352 21.672329 -0.09722352 23.53661919 -0.10346031 C29.98778488 -0.12431882 36.43892934 -0.13862013 42.89012146 -0.147995 C49.53884879 -0.15803665 56.18727164 -0.19342758 62.83589268 -0.23316669 C67.96019086 -0.2593724 73.08440955 -0.2676905 78.20876884 -0.27127647 C80.65864767 -0.27613409 83.10852315 -0.28772438 85.55833626 -0.30631447 C88.99732317 -0.33078352 92.4354483 -0.32972596 95.87449646 -0.32279968 C96.87594696 -0.33560974 97.87739746 -0.3484198 98.90919495 -0.36161804 C110.23878002 -0.27895709 119.7751281 3.80279853 128.34104919 11.14717102 C137.47163547 20.4179198 140.29445385 32.67244165 140.63108826 45.24116516 C141.33342773 71.33065478 144.73761055 96.86727312 152.19236755 121.90986633 C156.56106849 136.62385528 159.77193741 150.68276829 152.34104919 165.14717102 C150.44651406 167.89711977 148.3977855 170.51733219 146.34104919 173.14717102 C145.14172634 174.71510684 143.94386804 176.28416373 142.74729919 177.85420227 C142.11670593 178.67823547 141.48611267 179.50226868 140.83641052 180.35127258 C134.2876581 188.9120056 127.82162029 197.52528746 121.45188904 206.21992493 C115.53150688 214.28510086 109.44875984 222.2233803 103.34104919 230.14717102 C114.07967303 252.94384005 128.40784569 273.68442506 144.34104919 293.14717102 C144.80978455 293.72032043 145.2785199 294.29346985 145.76145935 294.88398743 C155.62045108 306.85156893 166.33025568 318.30469775 178.34104919 328.14717102 C178.8252533 328.55048645 179.3094574 328.95380188 179.80833435 329.36933899 C199.93818967 346.09545134 221.77689544 360.70596323 245.34104919 372.14717102 C245.78682312 371.79638489 246.23259705 371.44559875 246.69187927 371.08418274 C256.08702829 363.70339001 265.5631606 356.46314836 275.21116638 349.41596985 C280.85522653 345.27919621 286.39577683 341.02581095 291.90354919 336.70967102 C294.08917501 335.00805681 296.27613148 333.30817899 298.46409607 331.60957336 C300.0599012 330.36622363 301.64676944 329.11141725 303.23167419 327.85420227 C312.99206936 320.4709356 324.21652074 317.75745899 336.34104919 319.14717102 C340.64258709 320.05115419 344.83161441 321.24837335 349.04710388 322.48799133 C374.43334239 329.78288746 399.45590454 333.48882213 425.78294373 334.94819641 C427.54420593 335.04668884 427.54420593 335.04668884 429.34104919 335.14717102 C430.59643494 335.21734436 431.85182068 335.2875177 433.14524841 335.3598175 C434.37517517 335.43659729 435.60510193 335.51337708 436.87229919 335.59248352 C437.9738031 335.65838684 439.07530701 335.72429016 440.21018982 335.79219055 C452.30020734 337.16297077 460.86652144 343.8016741 468.57933044 352.77217102 C472.98749742 358.71488836 475.44912192 365.41412577 475.48822021 372.80612183 C475.49895317 374.20410255 475.49895317 374.20410255 475.50990295 375.63032532 C475.51393631 377.15375549 475.51393631 377.15375549 475.51805115 378.70796204 C475.52790794 380.32093422 475.52790794 380.32093422 475.53796387 381.9664917 C475.55768585 385.52802095 475.56935862 389.089508 475.57933044 392.65107727 C475.58340597 393.86932631 475.5874815 395.08757534 475.59168053 396.34274101 C475.61253903 402.79390671 475.62684034 409.24505116 475.63621521 415.69624329 C475.64625687 422.34497061 475.6816478 428.99339347 475.72138691 435.6420145 C475.74759262 440.76631269 475.75591071 445.89053138 475.75949669 451.01489067 C475.76435431 453.4647695 475.77594459 455.91464497 475.79453468 458.36445808 C475.81900373 461.803445 475.81794618 465.24157013 475.8110199 468.68061829 C475.82382996 469.68206879 475.83664001 470.68351929 475.84983826 471.71531677 C475.76292514 483.62770823 471.48559833 492.82871955 463.27073669 501.27607727 C454.99307739 509.10668528 446.83251879 512.28231456 435.54417419 512.35029602 C434.77150208 512.35735565 433.99882996 512.36441528 433.20274353 512.37168884 C350.7045152 512.94964044 269.92127929 491.24498686 149.34104919 417.14717102 C148.75807068 416.70308899 148.17509216 416.25900696 147.57444763 415.8014679 C129.40551981 401.88697221 112.66048648 386.54243653 96.46604919 370.39717102 C95.96759491 369.90139557 95.46914062 369.40562012 94.95558167 368.89482117 C89.19743052 363.16015574 83.5931424 357.35278962 78.34104919 351.14717102 C77.42855595 350.09095057 76.51580972 349.03494859 75.60276794 347.97920227 C69.26942285 340.55025574 63.17623606 332.97496304 57.34104919 325.14717102 C56.85410583 324.49683899 56.36716248 323.84650696 55.86546326 323.1764679 C38.83805662 300.33718304 23.6917291 275.93226225 11.35374451 250.23750305 C10.27360957 248.00796706 9.16378928 245.79466593 8.05198669 243.58076477 C-21.3846546 184.26963064 -36.56027864 116.98001243 -37.09645081 50.89717102 C-37.10875732 50.03918915 -37.12106384 49.18120728 -37.13374329 48.29722595 C-37.31388575 33.34845743 -35.36066843 22.09516367 -24.58863831 11.01826477 C-17.58511508 4.3929806 -9.78932348 0.05177842 0 0 Z " fill="#000000" transform="translate(36.65895080566406,-0.1471710205078125)"/>
</svg>
