
<!-- Generator: visioncortex VTracer 0.6.4 -->
<svg version="1.1" xmlns="http://www.w3.org/2000/svg" viewBox="0 0 512 512" preserveAspectRatio="xMidYMid meet">
<path d="M0 0 C1.061 0.002 2.122 0.004 3.215 0.006 C18.485 0.05 33.337 0.448 48.375 3.312 C49.32 3.479 50.264 3.645 51.237 3.816 C103.453 13.076 152.042 36.542 190.375 73.312 C190.991 73.896 191.608 74.48 192.243 75.082 C202.406 84.748 211.246 94.886 219.375 106.312 C220.043 107.237 220.043 107.237 220.725 108.181 C242.451 138.461 257.349 177.217 257.578 214.801 C257.585 215.578 257.592 216.354 257.599 217.155 C257.617 219.645 257.623 222.135 257.625 224.625 C257.626 225.902 257.626 225.902 257.627 227.206 C257.611 239.817 257.165 251.968 254.375 264.312 C254.203 265.117 254.032 265.921 253.855 266.75 C246.382 301.321 230.434 332.581 207.375 359.312 C206.833 359.947 206.291 360.582 205.733 361.236 C194.517 374.245 182.266 386.202 168.375 396.312 C167.225 397.169 166.075 398.026 164.926 398.883 C156.735 404.923 148.23 410.304 139.375 415.312 C138.678 415.709 137.982 416.106 137.264 416.515 C109.649 432.093 79.494 441.753 48.375 447.312 C47.079 447.56 47.079 447.56 45.757 447.813 C16.17 453.308 -18.096 452.979 -47.625 447.312 C-48.601 447.136 -49.578 446.959 -50.584 446.776 C-62.359 444.62 -73.862 441.951 -85.208 438.104 C-89.693 436.637 -92.981 435.758 -97.625 437.312 C-100.022 439.039 -100.022 439.039 -102.188 441.312 C-116.742 455.021 -134.976 464.46 -153.625 471.312 C-154.269 471.55 -154.912 471.787 -155.576 472.031 C-171.328 477.688 -187.781 480.602 -204.5 481 C-205.492 481.044 -206.484 481.087 -207.506 481.132 C-214.073 481.143 -217.44 479.677 -222.168 475.113 C-225.153 471.425 -224.967 467.396 -224.895 462.863 C-224.27 456.951 -220.725 453.363 -216.875 449.188 C-201.99 432.862 -194.095 409.773 -194.727 387.777 C-194.929 384.272 -195.247 380.803 -195.625 377.312 C-195.679 376.488 -195.733 375.663 -195.789 374.812 C-196.589 368.41 -200.303 365.071 -204.656 360.555 C-226.239 337.63 -240.082 307.244 -248.625 277.312 C-248.931 276.274 -249.236 275.235 -249.551 274.164 C-250.353 271.228 -251.01 268.294 -251.625 265.312 C-251.903 264.057 -252.182 262.801 -252.469 261.508 C-257.201 237.542 -256.945 209.141 -251.625 185.312 C-251.426 184.402 -251.228 183.492 -251.023 182.554 C-239.798 132.586 -209.697 85.993 -168.343 55.586 C-166.595 54.29 -164.877 52.96 -163.16 51.621 C-130.831 26.729 -91.55 11.864 -51.812 4.062 C-51.051 3.911 -50.289 3.76 -49.504 3.604 C-33.039 0.555 -16.705 -0.06 0 0 Z M-148.625 193.312 C-149.262 193.908 -149.899 194.504 -150.555 195.117 C-159.042 203.896 -161.961 215.255 -162.01 227.127 C-161.798 238.64 -157.46 247.953 -149.625 256.312 C-148.732 257.268 -148.732 257.268 -147.82 258.242 C-139.042 266.73 -127.683 269.649 -115.811 269.698 C-104.298 269.486 -94.984 265.147 -86.625 257.312 C-85.67 256.419 -85.67 256.419 -84.695 255.508 C-76.208 246.729 -73.289 235.37 -73.24 223.498 C-73.452 211.985 -77.79 202.672 -85.625 194.312 C-86.518 193.357 -86.518 193.357 -87.43 192.383 C-96.208 183.895 -107.567 180.976 -119.439 180.927 C-130.952 181.139 -140.266 185.478 -148.625 193.312 Z M-28.625 193.312 C-29.262 193.908 -29.899 194.504 -30.555 195.117 C-39.042 203.896 -41.961 215.255 -42.01 227.127 C-41.798 238.64 -37.46 247.953 -29.625 256.312 C-28.732 257.268 -28.732 257.268 -27.82 258.242 C-19.042 266.73 -7.683 269.649 4.189 269.698 C15.702 269.486 25.016 265.147 33.375 257.312 C34.33 256.419 34.33 256.419 35.305 255.508 C43.792 246.729 46.711 235.37 46.76 223.498 C46.548 211.985 42.21 202.672 34.375 194.312 C33.482 193.357 33.482 193.357 32.57 192.383 C23.792 183.895 12.433 180.976 0.561 180.927 C-10.952 181.139 -20.266 185.478 -28.625 193.312 Z M91.375 193.312 C90.738 193.908 90.101 194.504 89.445 195.117 C80.958 203.896 78.039 215.255 77.99 227.127 C78.202 238.64 82.54 247.953 90.375 256.312 C91.268 257.268 91.268 257.268 92.18 258.242 C100.958 266.73 112.317 269.649 124.189 269.698 C135.702 269.486 145.016 265.147 153.375 257.312 C154.33 256.419 154.33 256.419 155.305 255.508 C163.792 246.729 166.711 235.37 166.76 223.498 C166.548 211.985 162.21 202.672 154.375 194.312 C153.482 193.357 153.482 193.357 152.57 192.383 C143.792 183.895 132.433 180.976 120.561 180.927 C109.048 181.139 99.734 185.478 91.375 193.312 Z " fill="#000000" transform="translate(254.625,15.6875)"/>
</svg>