<?xml version="1.0" encoding="UTF-8"?>
<svg version="1.1" xmlns="http://www.w3.org/2000/svg" width="512" height="512">
<path d="M0 0 C1.45108658 0.00273422 1.45108658 0.00273422 2.93148804 0.00552368 C17.26440977 0.05095174 31.21023917 0.55983928 45.3125 3.3125 C46.65803955 3.55395752 46.65803955 3.55395752 48.03076172 3.80029297 C107.84088904 14.62287989 165.35495829 48.68064457 202.3125 97.3125 C202.72918945 97.85277832 203.14587891 98.39305664 203.57519531 98.94970703 C211.2584873 108.9447116 218.00092968 119.40459036 224.3125 130.3125 C224.70679199 130.98974121 225.10108398 131.66698242 225.50732422 132.36474609 C238.68961173 155.2833756 247.29510918 180.85822563 252.625 206.6875 C252.77243652 207.39817627 252.91987305 208.10885254 253.07177734 208.84106445 C256.05713787 224.48358366 256.6873098 240.11919606 256.625 256 C256.62226578 257.45108658 256.62226578 257.45108658 256.61947632 258.93148804 C256.57404826 273.26440977 256.06516072 287.21023917 253.3125 301.3125 C253.15152832 302.20952637 252.99055664 303.10655273 252.82470703 304.03076172 C242.00212011 363.84088904 207.94435543 421.35495829 159.3125 458.3125 C158.77222168 458.72918945 158.23194336 459.14587891 157.67529297 459.57519531 C147.6802884 467.2584873 137.22040964 474.00092968 126.3125 480.3125 C125.63525879 480.70679199 124.95801758 481.10108398 124.26025391 481.50732422 C101.3416244 494.68961173 75.76677437 503.29510918 49.9375 508.625 C49.22682373 508.77243652 48.51614746 508.91987305 47.78393555 509.07177734 C32.14141634 512.05713787 16.50580394 512.6873098 0.625 512.625 C-0.34239105 512.62317719 -1.3097821 512.62135437 -2.30648804 512.61947632 C-16.63940977 512.57404826 -30.58523917 512.06516072 -44.6875 509.3125 C-45.58452637 509.15152832 -46.48155273 508.99055664 -47.40576172 508.82470703 C-107.21588904 498.00212011 -164.72995829 463.94435543 -201.6875 415.3125 C-202.10418945 414.77222168 -202.52087891 414.23194336 -202.95019531 413.67529297 C-210.6334873 403.6802884 -217.37592968 393.22040964 -223.6875 382.3125 C-224.08179199 381.63525879 -224.47608398 380.95801758 -224.88232422 380.26025391 C-238.06461173 357.3416244 -246.67010918 331.76677437 -252 305.9375 C-252.14743652 305.22682373 -252.29487305 304.51614746 -252.44677734 303.78393555 C-255.43213787 288.14141634 -256.0623098 272.50580394 -256 256.625 C-255.99817719 255.65760895 -255.99635437 254.6902179 -255.99447632 253.69351196 C-255.94904826 239.36059023 -255.44016072 225.41476083 -252.6875 211.3125 C-252.44604248 209.96696045 -252.44604248 209.96696045 -252.19970703 208.59423828 C-241.37712011 148.78411096 -207.31935543 91.27004171 -158.6875 54.3125 C-158.14722168 53.89581055 -157.60694336 53.47912109 -157.05029297 53.04980469 C-147.0552884 45.3665127 -136.59540964 38.62407032 -125.6875 32.3125 C-125.01025879 31.91820801 -124.33301758 31.52391602 -123.63525391 31.11767578 C-100.7166244 17.93538827 -75.14177437 9.32989082 -49.3125 4 C-48.60182373 3.85256348 -47.89114746 3.70512695 -47.15893555 3.55322266 C-31.51641634 0.56786213 -15.88080394 -0.0623098 0 0 Z " fill="#3B5998" transform="translate(255.6875,-0.3125)"/>
<path d="M0 0 C1.37433158 0.00374033 2.74866587 0.00658246 4.1230011 0.00857544 C7.70189055 0.01613178 11.28061197 0.03570918 14.85943604 0.0579834 C18.52670988 0.07861647 22.19401226 0.08772451 25.86132812 0.09765625 C33.02879316 0.11789761 40.19579965 0.15706327 47.36328125 0.1953125 C47.36328125 19.3353125 47.36328125 38.4753125 47.36328125 58.1953125 C26.23828125 58.4453125 26.23828125 58.4453125 19.60107422 58.49316406 C17.85251247 58.52254635 16.10397416 58.55337438 14.35546875 58.5859375 C13.00884155 58.58762939 13.00884155 58.58762939 11.63500977 58.58935547 C6.09359026 58.71526192 2.68109185 59.3758081 -1.63671875 63.1953125 C-3.34146943 66.0076292 -3.89501095 68.14309131 -3.95556641 71.41308594 C-3.97562744 72.24501465 -3.99568848 73.07694336 -4.01635742 73.93408203 C-4.02771729 74.79888184 -4.03907715 75.66368164 -4.05078125 76.5546875 C-4.06842529 77.35664551 -4.08606934 78.15860352 -4.10424805 78.98486328 C-4.16716276 81.97147829 -4.2134546 84.95842482 -4.26171875 87.9453125 C-4.38546875 94.6278125 -4.50921875 101.3103125 -4.63671875 108.1953125 C12.19328125 108.1953125 29.02328125 108.1953125 46.36328125 108.1953125 C46.36328125 114.84415227 46.34497798 120.96302029 45.5234375 127.46875 C45.43702499 128.19921539 45.35061249 128.92968079 45.26158142 129.68228149 C44.9890104 131.97906362 44.7079932 134.27469694 44.42578125 136.5703125 C44.14847047 138.85891771 43.87313111 141.1477297 43.60069275 143.43692017 C43.43238687 144.84775624 43.26128725 146.25826398 43.08644104 147.66830444 C42.30236464 154.17788055 41.86800569 160.63389477 41.36328125 167.1953125 C26.18328125 167.1953125 11.00328125 167.1953125 -4.63671875 167.1953125 C-4.63671875 222.6353125 -4.63671875 278.0753125 -4.63671875 335.1953125 C-27.73671875 335.1953125 -50.83671875 335.1953125 -74.63671875 335.1953125 C-74.63671875 279.7553125 -74.63671875 224.3153125 -74.63671875 167.1953125 C-85.19671875 167.1953125 -95.75671875 167.1953125 -106.63671875 167.1953125 C-106.63671875 147.7253125 -106.63671875 128.2553125 -106.63671875 108.1953125 C-96.07671875 108.1953125 -85.51671875 108.1953125 -74.63671875 108.1953125 C-74.67152344 105.21628906 -74.70632812 102.23726563 -74.7421875 99.16796875 C-74.76570954 96.22209629 -74.78385374 93.27623505 -74.80151367 90.33032227 C-74.81642584 88.31236951 -74.83676276 86.29444813 -74.86303711 84.27661133 C-75.16820324 60.2043888 -72.73019982 36.95618508 -55.51171875 18.5078125 C-39.82984554 3.65130103 -20.87223804 -0.16581124 0 0 Z " fill="#FCFDFD" transform="translate(279.63671875,98.8046875)"/>
</svg>
