<?xml version="1.0" encoding="UTF-8"?>
<svg version="1.1" xmlns="http://www.w3.org/2000/svg" width="512" height="512">
<path d="M0 0 C2.10052024 1.94050688 4.17925573 3.90277572 6.25 5.875 C7.148396 6.73037354 7.148396 6.73037354 8.06494141 7.60302734 C16.95711736 16.13263199 24.95107735 24.95070671 32.25 34.875 C32.88929443 35.73109863 32.88929443 35.73109863 33.54150391 36.60449219 C40.05799189 45.34738527 45.83579021 54.41451241 51.25 63.875 C51.90613281 64.99777344 52.56226563 66.12054688 53.23828125 67.27734375 C67.48342969 92.65597493 76.01390396 121.18884249 80.25 149.875 C80.36714355 150.63458008 80.48428711 151.39416016 80.60498047 152.17675781 C90.12712749 216.10106722 71.181141 282.24293085 33.25 333.875 C27.07292336 341.96477549 20.26557429 349.50897149 13.25 356.875 C12.39462646 357.773396 12.39462646 357.773396 11.52197266 358.68994141 C2.99236801 367.58211736 -5.82570671 375.57607735 -15.75 382.875 C-16.60609863 383.51429443 -16.60609863 383.51429443 -17.47949219 384.16650391 C-26.22238527 390.68299189 -35.28951241 396.46079021 -44.75 401.875 C-45.87277344 402.53113281 -46.99554688 403.18726563 -48.15234375 403.86328125 C-73.49466058 418.08804627 -102.08013238 426.72598331 -130.75 430.875 C-131.54728516 430.99214355 -132.34457031 431.10928711 -133.16601562 431.22998047 C-197.89863057 440.28339898 -263.77662173 421.84486412 -315.75 382.875 C-319.50451633 379.96977475 -323.15637574 376.97650374 -326.75 373.875 C-327.90242188 372.88886719 -327.90242188 372.88886719 -329.078125 371.8828125 C-341.88364525 360.64618049 -353.6760276 348.61900045 -363.75 334.875 C-364.38711914 334.02107666 -364.38711914 334.02107666 -365.03710938 333.14990234 C-371.55535212 324.40549727 -377.33465189 315.33747662 -382.75 305.875 C-383.40613281 304.75222656 -384.06226563 303.62945312 -384.73828125 302.47265625 C-398.96304627 277.13033942 -407.60098331 248.54486762 -411.75 219.875 C-411.86714355 219.07771484 -411.98428711 218.28042969 -412.10498047 217.45898438 C-421.41713041 150.87642044 -401.51792864 85.18654197 -361.59765625 32.0078125 C-356.3572716 25.29926283 -350.61870816 19.03391901 -344.75 12.875 C-344.17830078 12.27461914 -343.60660156 11.67423828 -343.01757812 11.05566406 C-334.48949113 2.16497272 -325.67258247 -5.82733559 -315.75 -13.125 C-315.17926758 -13.55119629 -314.60853516 -13.97739258 -314.02050781 -14.41650391 C-305.27761473 -20.93299189 -296.21048759 -26.71079021 -286.75 -32.125 C-285.62722656 -32.78113281 -284.50445312 -33.43726562 -283.34765625 -34.11328125 C-258.00533942 -48.33804627 -229.41986762 -56.97598331 -200.75 -61.125 C-199.95271484 -61.24214355 -199.15542969 -61.35928711 -198.33398438 -61.47998047 C-126.89221899 -71.47173195 -53.34144633 -48.09242103 0 0 Z " fill="#E53030" transform="translate(421.75,71.125)"/>
<path d="M0 0 C1.1125415 -0.00067474 2.22508301 -0.00134949 3.37133789 -0.00204468 C21.48983062 0.0153757 39.23938964 0.6084117 57.1875 3.25 C58.28739258 3.41097168 59.38728516 3.57194336 60.52050781 3.73779297 C84.49721911 7.43115735 108.50944352 14.23782434 130.1875 25.25 C130.85990723 25.58435059 131.53231445 25.91870117 132.22509766 26.26318359 C157.18775834 38.83692407 178.17369691 59.30246297 187.50390625 86.01953125 C193.30583148 105.23206801 190.96295545 124.99932879 181.75 142.69921875 C178.48663047 148.02666952 175.30304841 151.68892991 169.375 153.9375 C164.08328171 154.69345976 159.72386353 154.55763571 154.65625 152.94140625 C150.93255818 151.78360822 147.20334394 150.67813132 143.4453125 149.63671875 C142.45144531 149.36118164 141.45757812 149.08564453 140.43359375 148.80175781 C139.40363281 148.51655273 138.37367188 148.23134766 137.3125 147.9375 C129.25034345 145.69188743 121.20386989 143.40429704 113.1875 141 C112.40648926 140.76627686 111.62547852 140.53255371 110.82080078 140.29174805 C108.60603474 139.62252955 106.39693677 138.93657445 104.1875 138.25 C103.38304443 138.01265137 102.57858887 137.77530273 101.74975586 137.53076172 C94.31836837 135.24360184 94.31836837 135.24360184 91.75 131.875 C91.29753906 131.31039062 90.84507812 130.74578125 90.37890625 130.1640625 C86.96320822 124.67654763 86.90705883 119.86012069 86.9140625 113.56640625 C86.89377664 111.65038475 86.87292591 109.73436916 86.8515625 107.81835938 C86.82896046 104.81204214 86.81248728 101.80595888 86.80664062 98.79956055 C86.7971034 95.88808425 86.76331732 92.97764859 86.7265625 90.06640625 C86.73413071 88.72552696 86.73413071 88.72552696 86.74185181 87.3575592 C86.65500561 81.82917544 85.87908175 78.63157719 82.1875 74.25 C66.44962886 60.87280953 36.12866793 61.13364398 16.58984375 61.046875 C15.52495728 61.03986069 14.4600708 61.03284637 13.36291504 61.02561951 C9.95023311 61.00823291 6.53772457 61.00176886 3.125 61 C1.96098663 60.99932526 0.79697327 60.99865051 -0.40231323 60.99795532 C-41.10575727 59.38883109 -41.10575727 59.38883109 -77.45703125 73.78515625 C-81.12733045 78.56933784 -81.12733045 78.56933784 -81.9543457 84.29736328 C-81.96138016 85.13228302 -81.96841461 85.96720276 -81.97566223 86.8274231 C-81.98190865 88.18515335 -81.98190865 88.18515335 -81.98828125 89.5703125 C-82.01149282 91.48698999 -82.03561068 93.40365667 -82.06054688 95.3203125 C-82.09556167 98.34186893 -82.1249466 101.36303168 -82.13842773 104.38476562 C-82.15398689 107.30126868 -82.1942615 110.21661765 -82.23828125 113.1328125 C-82.23637283 114.02582062 -82.23446442 114.91882874 -82.23249817 115.83889771 C-82.37618194 123.27825111 -84.30640027 128.54204118 -89.3828125 134.02734375 C-93.61672446 137.1968126 -98.66348364 138.40196138 -103.6875 139.8125 C-104.71617187 140.11349609 -105.74484375 140.41449219 -106.8046875 140.72460938 C-113.68504783 142.71561365 -120.59764526 144.48726651 -127.56640625 146.140625 C-130.95038107 146.98475665 -134.26460528 147.99549299 -137.58984375 149.046875 C-139.11641602 149.52833984 -139.11641602 149.52833984 -140.67382812 150.01953125 C-142.67230913 150.65650742 -144.66737007 151.30435246 -146.65820312 151.96484375 C-153.92868568 154.28208871 -160.62181249 155.67641814 -167.9375 152.875 C-177.77382441 147.26262404 -181.45185293 134.97128313 -184.5625 124.796875 C-189.24789228 105.6648565 -184.77467879 84.83443077 -174.96728516 68.10644531 C-154.19680055 34.71558591 -115.76762639 16.96044914 -78.71337891 8.26171875 C-64.56104861 5.08700024 -50.20916574 2.96747349 -35.8125 1.25 C-34.93424561 1.14397461 -34.05599121 1.03794922 -33.15112305 0.92871094 C-22.15140369 -0.18858103 -11.04387539 0.00600875 0 0 Z " fill="#FEFDFD" transform="translate(253.8125,127.75)"/>
<path d="M0 0 C3.32328761 1.19136726 4.24468526 2.70392024 6.0703125 5.7421875 C6.65457609 9.51041347 6.57528194 13.24388148 6.52441406 17.05004883 C6.52499817 18.19194672 6.52558228 19.3338446 6.52618408 20.51034546 C6.52339901 24.28194655 6.49228522 28.05275584 6.4609375 31.82421875 C6.45347666 34.4402371 6.44778299 37.05626105 6.44378662 39.67228699 C6.43136647 45.85234301 6.39855823 52.03211516 6.35838866 58.21204633 C6.31364075 65.24947309 6.29167638 72.2869136 6.27160692 79.32444727 C6.2298245 93.79717362 6.15949135 108.26967658 6.0703125 122.7421875 C7.3341171 121.65012081 8.5959331 120.55575258 9.85693359 119.46044922 C10.9112709 118.54669022 10.9112709 118.54669022 11.98690796 117.61447144 C13.90376262 115.89186014 15.70634938 114.11422398 17.484375 112.25 C18.01804687 111.69054687 18.55171875 111.13109375 19.1015625 110.5546875 C20.17946906 109.41337467 21.24961234 108.26468767 22.3125 107.109375 C24.97566301 104.34278818 26.54336833 102.89912245 30.296875 101.78125 C33.79705436 101.7319517 35.33078445 102.61144346 38.0703125 104.7421875 C40.0703125 107.7421875 40.0703125 107.7421875 40.1328125 110.9296875 C37.42378223 120.65032554 26.38305738 128.61561426 19.37182617 135.62597656 C17.3719426 137.62806941 15.38022481 139.63806174 13.38867188 141.6484375 C12.11246834 142.92757157 10.83579242 144.20623456 9.55859375 145.484375 C8.96685867 146.08329559 8.3751236 146.68221619 7.76545715 147.29928589 C6.92889839 148.13122971 6.92889839 148.13122971 6.07543945 148.97998047 C5.59025345 149.46659149 5.10506744 149.95320251 4.60517883 150.45455933 C1.92366575 152.70413098 -0.16776814 153.72487115 -3.6796875 153.8046875 C-13.06800498 150.73542986 -20.93436062 139.92366976 -27.81347656 133.04370117 C-29.81556941 131.0438176 -31.82556174 129.05209981 -33.8359375 127.06054688 C-35.11507157 125.78434334 -36.39373456 124.50766742 -37.671875 123.23046875 C-38.57025589 122.34286613 -38.57025589 122.34286613 -39.48678589 121.43733215 C-40.0414151 120.87962631 -40.59604431 120.32192047 -41.16748047 119.74731445 C-41.65409149 119.26212845 -42.14070251 118.77694244 -42.64205933 118.27705383 C-44.71631275 115.80452192 -45.79851555 113.47300266 -46.3671875 110.3046875 C-45.71346143 106.47572051 -43.93862629 105.09700916 -40.9296875 102.7421875 C-38.1171875 101.5546875 -38.1171875 101.5546875 -34.9296875 101.7421875 C-28.90837264 104.61888125 -24.28524092 110.31679075 -19.6484375 114.98828125 C-19.00100586 115.63825073 -18.35357422 116.28822021 -17.68652344 116.95788574 C-16.09961999 118.55137689 -14.51405116 120.14617177 -12.9296875 121.7421875 C-12.92822094 121.14896352 -12.92675438 120.55573954 -12.92524338 119.94453907 C-12.88818051 105.50545144 -12.82917282 91.0665766 -12.74578476 76.62768269 C-12.70598703 69.64509512 -12.67359837 62.66262037 -12.65869141 55.67993164 C-12.64428825 48.94300304 -12.60918576 42.20647448 -12.56137848 35.46968651 C-12.54652504 32.89767683 -12.53864423 30.32561726 -12.53780365 27.75356483 C-12.53544428 24.15474665 -12.50844543 20.55690274 -12.47558594 16.95825195 C-12.48313148 15.35818802 -12.48313148 15.35818802 -12.49082947 13.72579956 C-12.3885007 6.49645548 -12.3885007 6.49645548 -10.02056885 2.60368347 C-6.56820123 -0.46993351 -4.57694856 -0.29584839 0 0 Z " fill="#802E2E" transform="translate(258.9296875,256.2578125)"/>
</svg>
