<?xml version="1.0" encoding="UTF-8"?>
<svg version="1.1" xmlns="http://www.w3.org/2000/svg" width="512" height="512">
<path d="M0 0 C3.17960382 2.87840689 6.27255655 5.83875632 9.35546875 8.8203125 C10.15210938 9.56539062 10.94875 10.31046875 11.76953125 11.078125 C18.37856198 17.40691415 23.86750671 24.52725486 29.35546875 31.8203125 C29.99983887 32.66553467 29.99983887 32.66553467 30.65722656 33.52783203 C37.90723765 43.08009837 43.83127127 53.18669579 49.35546875 63.8203125 C49.71382813 64.50432129 50.0721875 65.18833008 50.44140625 65.89306641 C75.94772234 115.21566542 78.65853998 174.12081274 62.46044922 226.72705078 C49.60317944 266.45717271 24.49499356 303.22827109 -8.64453125 328.8203125 C-9.18529297 329.24280273 -9.72605469 329.66529297 -10.28320312 330.10058594 C-55.70477689 365.39124115 -112.94966689 380.19620515 -169.85302734 373.29882812 C-216.89947837 366.92393221 -258.66713608 345.68064263 -292.64453125 312.8203125 C-293.44117188 312.07523437 -294.2378125 311.33015625 -295.05859375 310.5625 C-301.66762448 304.23371085 -307.15656921 297.11337014 -312.64453125 289.8203125 C-313.28890137 288.97509033 -313.28890137 288.97509033 -313.94628906 288.11279297 C-321.19630015 278.56052663 -327.12033377 268.45392921 -332.64453125 257.8203125 C-333.00289062 257.13630371 -333.36125 256.45229492 -333.73046875 255.74755859 C-359.20444949 206.48748776 -361.87201802 147.82627436 -345.86376953 95.25634766 C-333.04467896 55.4310625 -307.84001109 18.43196862 -274.64453125 -7.1796875 C-274.09313477 -7.60749512 -273.54173828 -8.03530273 -272.97363281 -8.47607422 C-196.75673215 -67.23629996 -88.74289458 -67.89829529 0 0 Z M-254.64453125 0.8203125 C-255.53350098 1.48256836 -255.53350098 1.48256836 -256.44042969 2.15820312 C-261.92737586 6.27120621 -267.29580022 10.52957223 -272.64453125 14.8203125 C-270.98217574 19.14951912 -267.69197302 22.04604803 -264.46655273 25.24121094 C-263.83388489 25.87577713 -263.20121704 26.51034332 -262.54937744 27.16413879 C-260.45964617 29.25757108 -258.3628086 31.34372301 -256.265625 33.4296875 C-254.81319857 34.88092195 -253.36114146 36.33252612 -251.90943909 37.78448486 C-248.86857289 40.82378752 -245.82437695 43.85970145 -242.77758789 46.89306641 C-238.86250636 50.79112052 -234.95407795 54.69576315 -231.04788113 58.60271835 C-228.05173621 61.59859211 -225.05299801 64.59185832 -222.05336189 67.58423615 C-220.61058312 69.02382245 -219.16841829 70.46402433 -217.72686577 71.90483856 C-215.71812323 73.91142579 -213.70613068 75.91469282 -211.69311523 77.91699219 C-211.0920546 78.51850601 -210.49099396 79.12001984 -209.87171936 79.73976135 C-207.62141235 82.52646604 -207.62141235 82.52646604 -204.64453125 83.8203125 C-204.62994873 82.9137793 -204.61536621 82.00724609 -204.6003418 81.07324219 C-204.53862237 77.65097619 -204.46435682 74.22942799 -204.38208008 70.80761719 C-204.34919707 69.33766632 -204.32105631 67.86760027 -204.2980957 66.39746094 C-203.98680987 46.9785236 -199.45404809 30.44725975 -185.46875 16.4453125 C-172.72401334 4.59958216 -156.90222049 -1.66218718 -139.47998047 -1.22631836 C-123.60296282 -0.36981017 -108.21110016 5.74768959 -96.64453125 16.8203125 C-84.90054598 30.25851203 -79.15390426 45.01632908 -79.25634766 62.80249023 C-79.24846222 64.51699875 -79.24846222 64.51699875 -79.24041748 66.2661438 C-79.22730666 70.01220719 -79.2359248 73.75783917 -79.24609375 77.50390625 C-79.24407032 80.12744731 -79.24115665 82.75098783 -79.23739624 85.37452698 C-79.23195925 90.86081538 -79.23907506 96.34698209 -79.25341797 101.83325195 C-79.26973244 108.14593981 -79.26445656 114.45833671 -79.24793875 120.77101749 C-79.2326009 126.88086719 -79.23433066 132.99058951 -79.24308395 139.10045052 C-79.2450756 141.68345239 -79.24266335 144.26646177 -79.23564529 146.84945488 C-79.2279675 150.46941238 -79.23972427 154.08882311 -79.25634766 157.70874023 C-79.25027496 158.76105331 -79.24420227 159.81336639 -79.23794556 160.89756775 C-79.31938692 170.54293981 -81.07414789 179.71482298 -85.70703125 188.2578125 C-87.56436584 191.73145352 -89.24663329 195.13494514 -90.64453125 198.8203125 C-88.52547662 200.99308964 -86.39980247 203.15858158 -84.26953125 205.3203125 C-83.36460937 206.25037109 -83.36460937 206.25037109 -82.44140625 207.19921875 C-81.57128906 208.07900391 -81.57128906 208.07900391 -80.68359375 208.9765625 C-80.14943848 209.52119141 -79.6152832 210.06582031 -79.06494141 210.62695312 C-77.69851102 212.03473249 -77.69851102 212.03473249 -75.64453125 211.8203125 C-63.13094843 195.43654942 -57.77672944 176.85972862 -57.50390625 156.51953125 C-57.48457031 155.21306641 -57.46523438 153.90660156 -57.4453125 152.56054688 C-57.41619031 150.52174678 -57.39452563 148.48409145 -57.39404297 146.44506836 C-57.39071244 144.44889101 -57.35400733 142.45285721 -57.31640625 140.45703125 C-57.30706055 139.27842529 -57.29771484 138.09981934 -57.28808594 136.88549805 C-56.64453125 133.8203125 -56.64453125 133.8203125 -54.32910156 131.40161133 C-51.64453125 129.8203125 -51.64453125 129.8203125 -48.01953125 129.8828125 C-44.79613959 130.77819907 -43.55176167 131.17138135 -41.64453125 133.8203125 C-39.31658385 138.4762073 -40.44815565 144.85579335 -40.45703125 150.0078125 C-40.45796783 150.69459076 -40.45890442 151.38136902 -40.45986938 152.08895874 C-40.48877469 161.80185456 -40.5388387 171.2945605 -42.64453125 180.8203125 C-42.78455566 181.46081543 -42.92458008 182.10131836 -43.06884766 182.76123047 C-46.61736153 198.27077864 -53.86692905 212.32597311 -63.64453125 224.8203125 C-59.77042824 229.44956956 -55.75675628 233.85695873 -51.48730469 238.12280273 C-50.90442688 238.70903915 -50.32154907 239.29527557 -49.7210083 239.89927673 C-47.81791576 241.81177253 -45.91116544 243.72056629 -44.00390625 245.62890625 C-42.67198523 246.96404371 -41.34013825 248.29925505 -40.00836182 249.63453674 C-37.2296762 252.41918436 -34.44895761 255.20178352 -31.66699219 257.9831543 C-28.0951303 261.55491391 -24.53023463 265.1335418 -20.96700668 268.71391201 C-18.22529816 271.46670199 -15.4790944 274.2149726 -12.73157501 276.96196175 C-11.41420269 278.28051693 -10.09845806 279.60070037 -8.78435516 280.92251396 C-6.95564625 282.76095887 -5.12078533 284.5930327 -3.28417969 286.42358398 C-2.7397522 286.97363098 -2.19532471 287.52367798 -1.63439941 288.09039307 C0.88606247 290.94153385 0.88606247 290.94153385 4.35546875 291.8203125 C7.64508038 288.40531208 10.47074509 284.57872487 13.35546875 280.8203125 C13.81276367 280.23072754 14.27005859 279.64114258 14.74121094 279.03369141 C36.04875627 251.25176117 49.29580884 217.56344851 53.35546875 182.8203125 C53.46632813 181.9128125 53.5771875 181.0053125 53.69140625 180.0703125 C58.78969132 130.46537668 43.64534192 78.89891298 12.61035156 39.91162109 C7.47582344 33.61902382 1.96016098 27.69305523 -3.64453125 21.8203125 C-4.54558594 20.83998047 -4.54558594 20.83998047 -5.46484375 19.83984375 C-10.68360114 14.31949988 -16.79416208 9.78360645 -22.83007812 5.20361328 C-24.49443831 3.93474019 -26.14076704 2.64230596 -27.78515625 1.34765625 C-54.06741037 -18.55823819 -87.03217393 -30.36900444 -119.64453125 -34.1796875 C-121.00578125 -34.34597656 -121.00578125 -34.34597656 -122.39453125 -34.515625 C-168.2274596 -39.22623152 -217.62813332 -26.87134396 -254.64453125 0.8203125 Z M-171.54296875 27.08203125 C-186.3429698 40.88203222 -188.61389315 60.55237262 -189.47579956 79.77703857 C-189.81154496 98.26851549 -184.11318286 109.54013407 -171.41516113 122.73095703 C-164.04301297 130.12005266 -156.42532229 137.18642304 -148.63244629 144.1282959 C-144.08452427 148.20221948 -139.6737211 152.42186991 -135.25040627 156.62997055 C-125.19474511 166.19036094 -114.98159186 175.56552282 -104.64453125 184.8203125 C-102.54734656 182.08580435 -100.91022101 179.54197781 -99.51953125 176.3828125 C-99.18695313 175.64160156 -98.854375 174.90039062 -98.51171875 174.13671875 C-97.00959043 170.1242769 -96.51978532 166.27664629 -96.49736023 162.00987244 C-96.49020493 161.06954163 -96.48304962 160.12921082 -96.47567749 159.16038513 C-96.47298859 158.1405806 -96.47029968 157.12077606 -96.4675293 156.07006836 C-96.4609581 154.98646027 -96.4543869 153.90285217 -96.44761658 152.78640747 C-96.42791824 149.20265631 -96.41622734 145.61894704 -96.40625 142.03515625 C-96.40217447 140.80803988 -96.39809895 139.5809235 -96.39389992 138.31662178 C-96.37519921 132.48817166 -96.36063196 126.65973788 -96.35228795 120.83126348 C-96.34350434 114.7973036 -96.32425447 108.76359613 -96.2878418 102.72973633 C-96.24930846 96.24002305 -96.2305906 89.75053711 -96.22608376 83.26071358 C-96.22122983 80.79491489 -96.20965021 78.32911944 -96.19104576 75.86338615 C-96.16654778 72.40076575 -96.16763945 68.93899993 -96.17456055 65.47631836 C-96.16175049 64.47068344 -96.14894043 63.46504852 -96.13574219 62.42893982 C-96.22675548 49.84521302 -100.73161398 39.32452149 -109.14453125 30.0703125 C-109.96953125 29.3278125 -110.79453125 28.5853125 -111.64453125 27.8203125 C-112.51078125 26.9953125 -113.37703125 26.1703125 -114.26953125 25.3203125 C-131.52329795 11.43847483 -154.82474928 14.03641256 -171.54296875 27.08203125 Z M-287.64453125 29.8203125 C-290.93414288 33.23531292 -293.75980759 37.06190013 -296.64453125 40.8203125 C-297.10182617 41.40989746 -297.55912109 41.99948242 -298.03027344 42.60693359 C-319.33781877 70.38886383 -332.58487134 104.07717649 -336.64453125 138.8203125 C-336.75539063 139.7278125 -336.86625 140.6353125 -336.98046875 141.5703125 C-342.07419472 191.13088947 -326.91460866 242.76658018 -295.89941406 281.72900391 C-290.76488594 288.02160118 -285.24922348 293.94756977 -279.64453125 299.8203125 C-279.04382813 300.47386719 -278.443125 301.12742187 -277.82421875 301.80078125 C-272.60546136 307.32112512 -266.49490042 311.85701855 -260.45898438 316.43701172 C-258.79462419 317.70588481 -257.14829546 318.99831904 -255.50390625 320.29296875 C-229.22165213 340.19886319 -196.25688857 352.00962944 -163.64453125 355.8203125 C-162.73703125 355.93117188 -161.82953125 356.04203125 -160.89453125 356.15625 C-115.0616029 360.86685652 -65.66092918 348.51196896 -28.64453125 320.8203125 C-28.05188477 320.37880859 -27.45923828 319.93730469 -26.84863281 319.48242188 C-21.36168664 315.36941879 -15.99326228 311.11105277 -10.64453125 306.8203125 C-12.30058012 302.52525487 -15.54001431 299.65878208 -18.74658203 296.49121094 C-19.68336288 295.553992 -19.68336288 295.553992 -20.6390686 294.59783936 C-22.70128775 292.53701181 -24.77049715 290.48335597 -26.83984375 288.4296875 C-28.27231672 287.00094525 -29.70434832 285.57176035 -31.13595581 284.14215088 C-34.90284609 280.38289233 -38.67570418 276.62967893 -42.4498291 272.87768555 C-46.30089856 269.04708433 -50.14630396 265.21080655 -53.9921875 261.375 C-61.53743059 253.85119872 -69.08898936 246.33377048 -76.64453125 238.8203125 C-80.07060103 240.49090939 -83.19091611 242.43847227 -86.39453125 244.5078125 C-99.44772501 252.63973792 -112.58647833 256.98836321 -127.64453125 259.8203125 C-129.29453125 260.1503125 -130.94453125 260.4803125 -132.64453125 260.8203125 C-132.64453125 275.6703125 -132.64453125 290.5203125 -132.64453125 305.8203125 C-118.9576102 306.03033092 -118.9576102 306.03033092 -105.27026367 306.20825195 C-103.55515347 306.24053508 -101.84006329 306.27390783 -100.125 306.30859375 C-99.23349243 306.31483765 -98.34198486 306.32108154 -97.42346191 306.32751465 C-96.14493347 306.35742493 -96.14493347 306.35742493 -94.84057617 306.38793945 C-94.10111252 306.39904251 -93.36164886 306.41014557 -92.59977722 306.42158508 C-90.07246787 306.93697166 -89.19713495 307.78658459 -87.64453125 309.8203125 C-86.84570862 313.19994672 -86.35604956 315.75293025 -87.26953125 319.1328125 C-89.20259894 321.50521375 -90.69301911 321.92293878 -93.64453125 322.8203125 C-96.7456254 323.10856214 -99.83264711 323.0935555 -102.9453125 323.07910156 C-103.87435394 323.0826062 -104.80339539 323.08611084 -105.7605896 323.08972168 C-108.82614655 323.0985114 -111.89147202 323.09269952 -114.95703125 323.0859375 C-117.0902511 323.08728494 -119.22347065 323.08922614 -121.35668945 323.09173584 C-125.82538784 323.09468337 -130.29400623 323.09040134 -134.76269531 323.08105469 C-140.48932768 323.06966043 -146.21577258 323.07622188 -151.94239807 323.08819962 C-156.34673473 323.0954282 -160.75102699 323.09312568 -165.15536499 323.08794403 C-167.26687645 323.0866103 -169.37839194 323.08824557 -171.48989868 323.09290314 C-174.44129105 323.09798469 -177.3923802 323.09023506 -180.34375 323.07910156 C-181.21558929 323.08315002 -182.08742859 323.08719849 -182.98568726 323.09136963 C-187.29038442 323.06130177 -190.76693546 322.92734733 -194.64453125 320.8203125 C-196.81172331 318.1605768 -196.63987988 316.73193654 -196.45703125 313.2578125 C-195.63621537 309.78512991 -195.35927159 308.90169491 -192.64453125 306.8203125 C-190.68928528 306.42158508 -190.68928528 306.42158508 -188.44848633 306.38793945 C-187.59613403 306.36799927 -186.74378174 306.34805908 -185.86560059 306.32751465 C-184.52833923 306.3181488 -184.52833923 306.3181488 -183.1640625 306.30859375 C-182.34143921 306.29195679 -181.51881592 306.27531982 -180.67126465 306.25817871 C-177.60011325 306.20037113 -174.52852367 306.16812489 -171.45703125 306.1328125 C-164.58890625 306.0296875 -157.72078125 305.9265625 -150.64453125 305.8203125 C-150.64453125 290.9703125 -150.64453125 276.1203125 -150.64453125 260.8203125 C-157.24453125 259.5003125 -163.84453125 258.1803125 -170.64453125 256.8203125 C-185.22713178 252.00404076 -198.27956617 245.22804468 -209.64453125 234.8203125 C-210.49660156 234.04945313 -211.34867187 233.27859375 -212.2265625 232.484375 C-231.7366438 213.96328399 -241.88717946 188.11226108 -242.75390625 161.45654297 C-242.83355835 157.68153105 -242.8742754 153.90859854 -242.89453125 150.1328125 C-242.90387695 148.90224121 -242.91322266 147.67166992 -242.92285156 146.40380859 C-242.91866211 145.2380127 -242.91447266 144.0722168 -242.91015625 142.87109375 C-242.90790039 141.82606689 -242.90564453 140.78104004 -242.90332031 139.7043457 C-242.63193315 136.679915 -242.0193753 134.52072838 -240.64453125 131.8203125 C-237.69575578 130.01828305 -235.97406806 129.80054029 -232.51953125 130.0078125 C-229.44064736 130.87793186 -228.51561156 131.30057294 -226.64453125 133.8203125 C-226.24389648 136.47729492 -226.24389648 136.47729492 -226.203125 139.67578125 C-226.16602417 141.43365967 -226.16602417 141.43365967 -226.12817383 143.22705078 C-226.10533325 145.09852783 -226.10533325 145.09852783 -226.08203125 147.0078125 C-226.01633535 149.57173703 -225.94605392 152.13554835 -225.87109375 154.69921875 C-225.83532227 155.93430176 -225.79955078 157.16938477 -225.76269531 158.44189453 C-224.92931671 182.26894643 -217.30132786 201.64489768 -200.64453125 218.8203125 C-200.10570312 219.43261719 -199.566875 220.04492188 -199.01171875 220.67578125 C-189.56450885 231.04872277 -176.74313952 236.64353286 -163.64453125 240.8203125 C-162.84789062 241.07554687 -162.05125 241.33078125 -161.23046875 241.59375 C-139.68177437 247.33452186 -117.618257 242.00461239 -98.44921875 231.6640625 C-95.43324084 229.68141407 -93.10413669 227.45109927 -90.64453125 224.8203125 C-92.71320688 222.61711317 -94.79734919 220.43358275 -96.89453125 218.2578125 C-97.48105469 217.62939453 -98.06757813 217.00097656 -98.671875 216.35351562 C-99.24550781 215.76376953 -99.81914062 215.17402344 -100.41015625 214.56640625 C-100.93383789 214.01654053 -101.45751953 213.4666748 -101.99707031 212.90014648 C-103.60504516 211.59313077 -103.60504516 211.59313077 -105.68457031 212.06713867 C-108.29532948 213.07040126 -110.68409222 214.36588173 -113.14453125 215.6953125 C-127.49249343 222.86929359 -145.2670455 224.65540322 -160.79296875 219.91015625 C-178.09807873 213.29628545 -189.99101597 203.28399199 -198.64453125 186.8203125 C-200.2827344 182.87952381 -201.60834124 178.95890474 -202.64453125 174.8203125 C-202.9457489 173.64707428 -202.9457489 173.64707428 -203.25305176 172.45013428 C-203.68148678 169.57205824 -203.36590456 167.8992075 -202.56445312 165.12207031 C-198.01172075 147.49496758 -195.90520063 127.49984241 -204.64453125 110.8203125 C-215.40494756 94.13112116 -230.78454374 80.23266998 -245.08203125 66.6328125 C-245.56359051 66.17376589 -246.04514977 65.71471928 -246.54130173 65.24176216 C-256.85645656 55.41439583 -267.31876615 45.75086904 -277.99780273 36.31958008 C-278.7464283 35.65473728 -279.49505386 34.98989449 -280.26636505 34.30490494 C-280.94923836 33.70874752 -281.63211166 33.1125901 -282.3356781 32.49836731 C-282.92985755 31.97767575 -283.524037 31.4569842 -284.13622189 30.92051411 C-285.60267813 29.62387601 -285.60267813 29.62387601 -287.64453125 29.8203125 Z M-186.64453125 128.8203125 C-186.74459521 133.99400407 -186.81655393 139.16711297 -186.86425781 144.34155273 C-186.88417697 146.09588452 -186.91132259 147.85015166 -186.94628906 149.60424805 C-187.2688194 166.21930338 -185.47717879 179.43937606 -173.54296875 192.0390625 C-163.37931625 201.6640055 -152.15448672 205.32717615 -138.33203125 205.1484375 C-131.37936234 204.52976781 -124.48119567 202.71142211 -118.64453125 198.8203125 C-120.01666138 195.738446 -121.57832024 193.64538455 -123.97338867 191.28027344 C-124.65137009 190.60567078 -125.3293515 189.93106812 -126.02787781 189.23602295 C-126.76117813 188.51618225 -127.49447845 187.79634155 -128.25 187.0546875 C-129.00742996 186.30245911 -129.76485992 185.55023071 -130.54524231 184.77520752 C-132.96947431 182.36878025 -135.40026108 179.96912012 -137.83203125 177.5703125 C-140.24512217 175.18498046 -142.65669246 172.79816198 -145.06526184 170.40826416 C-146.56283689 168.92278875 -148.0630757 167.43999212 -149.56645203 165.96038818 C-153.56424258 162.00023297 -157.3511656 157.93456274 -161.0236969 153.67169189 C-163.35687977 151.00664059 -165.82071714 148.51438158 -168.32421875 146.0078125 C-168.82245148 145.50862305 -169.3206842 145.00943359 -169.83401489 144.49511719 C-170.86956298 143.45889745 -171.90633909 142.42390349 -172.94433594 141.39013672 C-174.54091259 139.79900407 -176.13196736 138.20248535 -177.72265625 136.60546875 C-178.7353559 135.5934285 -179.74836495 134.58169774 -180.76171875 133.5703125 C-181.67550293 132.65765625 -182.58928711 131.745 -183.53076172 130.8046875 C-185.28283121 128.70623924 -185.28283121 128.70623924 -186.64453125 128.8203125 Z " fill="#000000" transform="translate(397.64453125,95.1796875)"/>
</svg>
