
<!-- Generator: visioncortex VTracer 0.6.4 -->
<svg version="1.1" xmlns="http://www.w3.org/2000/svg" viewBox="0 0 512 512" preserveAspectRatio="xMidYMid meet">
<path d="M0 0 C3.882 0.017 7.763 0.007 11.645 -0.01 C54.11 -0.171 88.975 9.896 119.905 40.137 C141.354 62.658 154.035 93.861 154.408 124.891 C154.437 125.694 154.466 126.497 154.496 127.325 C154.568 134.136 152.826 139.228 148.35 144.415 C147.792 144.861 147.234 145.307 146.658 145.766 C146.103 146.228 145.547 146.689 144.975 147.165 C139.299 150.87 134.005 150.681 127.426 150.665 C126.338 150.671 125.251 150.676 124.13 150.681 C120.479 150.696 116.828 150.697 113.177 150.698 C110.562 150.705 107.947 150.714 105.332 150.723 C98.223 150.746 91.113 150.754 84.003 150.759 C79.562 150.762 75.12 150.768 70.678 150.776 C58.374 150.795 46.07 150.812 33.766 150.814 C32.979 150.815 32.192 150.815 31.381 150.815 C29.785 150.815 28.189 150.816 26.594 150.816 C25.802 150.816 25.009 150.816 24.193 150.817 C23.4 150.817 22.607 150.817 21.79 150.817 C8.945 150.821 -3.9 150.848 -16.745 150.885 C-29.942 150.923 -43.138 150.943 -56.335 150.943 C-63.741 150.943 -71.146 150.952 -78.552 150.981 C-85.52 151.008 -92.487 151.009 -99.455 150.993 C-102.01 150.991 -104.565 150.998 -107.12 151.014 C-110.613 151.035 -114.105 151.024 -117.599 151.006 C-118.605 151.019 -119.611 151.032 -120.648 151.046 C-127.637 150.963 -133.089 149.36 -138.904 145.391 C-146.405 137.539 -145.229 128.526 -145.115 118.399 C-144.923 110.828 -143.893 103.715 -141.904 96.391 C-141.716 95.692 -141.528 94.994 -141.334 94.274 C-135.16 72.19 -123.526 54.004 -107.904 37.391 C-107.378 36.801 -106.852 36.21 -106.31 35.602 C-93.57 21.887 -75.962 12.534 -58.467 6.516 C-57.682 6.242 -56.897 5.968 -56.089 5.685 C-37.735 -0.25 -19.067 -0.085 0 0 Z " fill="#000000" transform="translate(336.904052734375,276.60888671875)"/>
<path d="M0 0 C0.861 0.495 1.722 0.99 2.609 1.5 C21.712 13.422 33.637 32.498 39.309 53.914 C44.311 76.24 40.629 99.347 29 119 C26.002 123.626 22.607 127.839 19 132 C18.066 133.102 18.066 133.102 17.113 134.227 C7.42 144.782 -5.565 151.551 -19 156 C-19.963 156.339 -20.926 156.678 -21.918 157.027 C-43.246 163.273 -67.094 159.566 -86.312 149.129 C-106.187 137.87 -119.332 121.307 -127 100 C-127.34 99.058 -127.681 98.115 -128.031 97.145 C-134.385 75.347 -130.14 50.84 -120 31 C-107.953 10.671 -89.221 -3.546 -66.586 -9.969 C-43.252 -15.459 -20.588 -11.931 0 0 Z " fill="#000000" transform="translate(386,97)"/>
<path d="M0 0 C0.861 0.495 1.722 0.99 2.609 1.5 C21.712 13.422 33.637 32.498 39.309 53.914 C44.311 76.24 40.629 99.347 29 119 C26.002 123.626 22.607 127.839 19 132 C18.066 133.102 18.066 133.102 17.113 134.227 C7.42 144.782 -5.565 151.551 -19 156 C-19.963 156.339 -20.926 156.678 -21.918 157.027 C-43.246 163.273 -67.094 159.566 -86.312 149.129 C-106.187 137.87 -119.332 121.307 -127 100 C-127.34 99.058 -127.681 98.115 -128.031 97.145 C-134.385 75.347 -130.14 50.84 -120 31 C-107.953 10.671 -89.221 -3.546 -66.586 -9.969 C-43.252 -15.459 -20.588 -11.931 0 0 Z " fill="#000000" transform="translate(194,97)"/>
<path d="M0 0 C2.817 0.009 5.632 -0.02 8.449 -0.052 C24.289 -0.114 39.065 2.175 54.017 7.446 C52.578 10.461 51.197 12.454 48.752 14.743 C21.905 40.868 5.896 82.512 4.814 119.645 C4.793 121.475 4.778 123.304 4.767 125.134 C4.747 126.025 4.726 126.916 4.705 127.835 C4.673 133.367 5.332 138.406 6.538 143.812 C6.813 145.059 7.089 146.305 7.373 147.59 C7.585 148.532 7.798 149.475 8.017 150.446 C-7.099 150.54 -22.216 150.61 -37.333 150.653 C-44.352 150.674 -51.372 150.702 -58.391 150.748 C-65.167 150.792 -71.943 150.815 -78.718 150.826 C-81.302 150.833 -83.885 150.847 -86.469 150.869 C-90.091 150.898 -93.712 150.902 -97.334 150.9 C-98.4 150.915 -99.465 150.929 -100.562 150.944 C-107.963 150.903 -113.247 149.67 -119.006 144.7 C-119.452 144.142 -119.898 143.584 -120.358 143.009 C-120.819 142.453 -121.281 141.897 -121.756 141.325 C-129.308 129.756 -125.972 108.627 -123.358 95.696 C-121.423 86.966 -118.576 78.626 -114.983 70.446 C-114.716 69.835 -114.449 69.225 -114.174 68.595 C-101.35 39.863 -76.263 18.493 -47.365 7.009 C-31.775 1.471 -16.431 -0.075 0 0 Z " fill="#000000" transform="translate(145.982666015625,276.553955078125)"/>
</svg>