<?xml version="1.0" encoding="UTF-8"?>
<svg version="1.1" xmlns="http://www.w3.org/2000/svg" width="512" height="512">
<path d="M0 0 C1.62161673 1.49484539 3.26302644 2.96845661 4.921875 4.421875 C47.65068661 41.89175595 71.7918537 99.29590453 76.2043457 155.12255859 C78.11303691 185.49355699 74.65959082 216.48923448 64.3984375 245.2109375 C64.13224609 245.98260254 63.86605469 246.75426758 63.59179688 247.54931641 C56.58012503 267.75733451 47.01367707 286.90496097 34.3984375 304.2109375 C33.99415527 304.7692627 33.58987305 305.32758789 33.17333984 305.90283203 C27.85811737 313.18150569 22.09572992 319.92401187 15.9296875 326.4921875 C13.79028232 328.79006713 11.7382476 331.12752557 9.7109375 333.5234375 C6.25331283 337.49360418 2.41872717 340.82472036 -1.6015625 344.2109375 C-2.51421875 345.02304687 -3.426875 345.83515625 -4.3671875 346.671875 C-38.77136256 377.05456703 -83.3322405 394.89261322 -128.6015625 400.2109375 C-129.68566406 400.34242188 -130.76976562 400.47390625 -131.88671875 400.609375 C-190.90943076 406.36389501 -251.92954107 388.18555182 -297.765625 350.62890625 C-308.3101718 341.88676515 -318.96380608 332.8811072 -327.6015625 322.2109375 C-328.51300535 321.11196632 -329.42446531 320.01300934 -330.3359375 318.9140625 C-368.92316509 271.96481719 -388.22152366 212.32303982 -383.10546875 151.55078125 C-378.17705012 101.78043313 -358.88423866 54.5503127 -324.8125 17.609375 C-323.31765461 15.98775827 -321.84404339 14.34634856 -320.390625 12.6875 C-283.51240093 -29.36661517 -227.2844137 -53.18523405 -172.4140625 -58.4765625 C-109.38067466 -62.32103851 -46.80260679 -43.16745286 0 0 Z M-238.6015625 65.2109375 C-238.6015625 92.9309375 -238.6015625 120.6509375 -238.6015625 149.2109375 C-230.75581667 152.37692273 -230.75581667 152.37692273 -222.83227539 155.22558594 C-221.82165543 155.5656366 -220.81103546 155.90568726 -219.76979065 156.25604248 C-218.71525192 156.60725159 -217.6607132 156.95846069 -216.57421875 157.3203125 C-215.46348495 157.69198547 -214.35275116 158.06365845 -213.20835876 158.44659424 C-210.88021747 159.22454315 -208.55156066 160.00095087 -206.22241211 160.77587891 C-202.64836005 161.96616698 -199.07706265 163.16447694 -195.50585938 164.36328125 C-193.2371412 165.12027746 -190.9682665 165.87680476 -188.69921875 166.6328125 C-187.63051041 166.99211853 -186.56180206 167.35142456 -185.46070862 167.72161865 C-183.97787636 168.21278168 -183.97787636 168.21278168 -182.46508789 168.71386719 C-181.59590225 169.00380554 -180.72671661 169.2937439 -179.83119202 169.59246826 C-177.50539124 170.34458443 -177.50539124 170.34458443 -174.6015625 170.2109375 C-174.6015625 170.8709375 -174.6015625 171.5309375 -174.6015625 172.2109375 C-175.82552734 172.45642334 -177.04949219 172.70190918 -178.31054688 172.95483398 C-184.43196461 174.31878717 -190.31823309 176.31262041 -196.2578125 178.30859375 C-198.03303284 178.90008461 -198.03303284 178.90008461 -199.84411621 179.50352478 C-202.96174392 180.5437082 -206.07792776 181.588083 -209.19360352 182.63409424 C-211.74900845 183.49039196 -214.30627031 184.34106616 -216.86356354 185.19170475 C-219.91269346 186.2067044 -222.9602084 187.22652354 -226.0078125 188.24609375 C-227.15560181 188.62838638 -228.30339111 189.01067902 -229.48596191 189.40455627 C-230.53795776 189.7583989 -231.58995361 190.11224152 -232.67382812 190.47680664 C-233.60376587 190.78832169 -234.53370361 191.09983673 -235.49182129 191.42079163 C-237.55679097 192.02810465 -237.55679097 192.02810465 -238.6015625 193.2109375 C-238.69665809 195.82782191 -238.7271225 198.4182265 -238.71508789 201.03540039 C-238.71523392 201.85484634 -238.71537994 202.6742923 -238.7155304 203.51856995 C-238.71483102 206.24027103 -238.70703751 208.96190455 -238.69921875 211.68359375 C-238.69735466 213.56546491 -238.69593071 215.44733656 -238.69493103 217.32920837 C-238.69110517 222.29242279 -238.68127431 227.25560814 -238.67022705 232.21881104 C-238.6600144 237.27933356 -238.65543372 242.33986077 -238.65039062 247.40039062 C-238.6396521 257.33725295 -238.62217942 267.27409141 -238.6015625 277.2109375 C-225.58458299 271.10633127 -212.67328153 264.81727826 -199.81958008 258.37670898 C-197.92526209 257.42940849 -196.03085527 256.4822856 -194.1363678 255.5353241 C-189.05824593 252.99640497 -183.98134978 250.45504413 -178.90469193 247.91319919 C-173.57502047 245.24521005 -168.24419479 242.57952907 -162.91349792 239.91358948 C-152.84810701 234.87934806 -142.78373632 229.84307063 -132.71974248 224.80603701 C-121.24994469 219.06552409 -109.77899326 213.32731822 -98.30795062 207.58929336 C-74.73788187 195.79905105 -51.169243 184.00595289 -27.6015625 172.2109375 C-27.6015625 171.5509375 -27.6015625 170.8909375 -27.6015625 170.2109375 C-54.3361457 156.83225113 -81.07174512 143.45559732 -107.80877393 130.08179912 C-110.9619604 128.50458049 -114.11513817 126.92734446 -117.26831055 125.35009766 C-117.89607734 125.03608311 -118.52384413 124.72206855 -119.17063416 124.39853841 C-129.34882875 119.30726267 -139.5263163 114.21457508 -149.70354538 109.12136966 C-160.13847653 103.89923606 -170.57417601 98.67864045 -181.01055342 93.45939779 C-186.87578064 90.52613038 -192.74064955 87.59215143 -198.60468864 84.6565094 C-204.11698448 81.89698368 -209.63020209 79.13930875 -215.14415169 76.38308907 C-217.17429267 75.36788031 -219.20408748 74.35197899 -221.23352051 73.33535576 C-223.99106652 71.95411772 -226.74981436 70.57531116 -229.50889587 69.19714355 C-230.32308217 68.78859398 -231.13726848 68.38004441 -231.97612709 67.95911455 C-235.1507422 66.06624843 -235.1507422 66.06624843 -238.6015625 65.2109375 Z " fill="#000000" transform="translate(409.6015625,84.7890625)"/>
</svg>
