<?xml version="1.0" encoding="UTF-8"?>
<svg version="1.1" xmlns="http://www.w3.org/2000/svg" width="512" height="512">
<path d="M0 0 C1.00212021 -0.00571014 2.00424042 -0.01142029 3.03672791 -0.01730347 C4.1251297 -0.01842133 5.21353149 -0.01953918 6.33491516 -0.02069092 C7.49001083 -0.02565582 8.64510651 -0.03062073 9.83520508 -0.03573608 C13.65583391 -0.05033822 17.47642121 -0.05715688 21.29707336 -0.06268311 C23.28406508 -0.066982 25.2710568 -0.07128144 27.25804836 -0.07565761 C32.79543685 -0.08745835 38.33281533 -0.09500213 43.87021512 -0.09845281 C51.0100624 -0.10292758 58.14971768 -0.12045273 65.28950661 -0.1494534 C70.82263056 -0.17114057 76.35570077 -0.18116086 81.88886672 -0.18249393 C85.18678652 -0.18353717 88.48448558 -0.19081029 91.78236961 -0.20731354 C95.4679999 -0.22443905 99.15316707 -0.22247745 102.83882141 -0.21600342 C103.91710205 -0.2252182 104.99538269 -0.23443298 106.1063385 -0.243927 C116.49132488 -0.18701451 125.23703829 1.82964445 132.91035461 9.14044189 C133.36555481 9.56655762 133.820755 9.99267334 134.28974915 10.43170166 C139.57657396 15.90291107 141.73912433 22.52773026 144.28535461 29.57794189 C144.96017883 31.39068604 144.96017883 31.39068604 145.64863586 33.24005127 C146.74920501 36.20222141 147.83592789 39.16871149 148.91035461 42.14044189 C149.54991592 42.14630814 150.18947723 42.15217438 150.84841919 42.15821838 C157.54927699 42.2225172 164.24967062 42.30702811 170.95014954 42.40289307 C173.4455297 42.43599686 175.94098212 42.46407329 178.43647766 42.48687744 C182.03875817 42.52069154 185.64038508 42.57302122 189.24238586 42.62872314 C190.34492203 42.63511307 191.44745819 42.64150299 192.58340454 42.64808655 C207.84440744 42.93299416 221.53773706 48.0192259 232.65644836 58.65606689 C240.68389777 67.50434735 247.08552444 79.3374516 247.00128174 91.49620056 C246.99661896 92.58253281 246.99195618 93.66886505 246.9871521 94.78811646 C246.97221962 96.56872971 246.97221962 96.56872971 246.95698547 98.38531494 C246.94421083 100.9846532 246.93177029 103.58399311 246.9196167 106.18333435 C246.91162338 107.5768045 246.90362709 108.97027462 246.89562798 110.36374474 C246.87286665 114.6805822 246.86722973 118.99733273 246.86630249 123.31422424 C246.86612072 124.04364989 246.86593896 124.77307553 246.86575168 125.52460498 C246.8653019 128.53305114 246.86538399 131.54149714 246.86558712 134.54994333 C246.86532256 143.08002268 246.84862648 151.60936797 246.78364563 160.13922119 C246.7321025 166.92042351 246.71605384 173.70067629 246.74110705 180.48204261 C246.75301907 184.06734858 246.74729709 187.65062737 246.69842339 191.23566246 C246.64427619 195.24124472 246.66869737 199.24276315 246.69917297 203.24859619 C246.67099991 204.42555054 246.64282684 205.60250488 246.61380005 206.81512451 C246.70677946 211.75426569 246.90622465 214.89939877 250.07692146 218.81818581 C252.59371278 221.105862 255.16199267 223.14046407 257.91035461 225.14044189 C280.13091894 243.55750709 296.92062175 269.85762377 300.62910461 298.81231689 C303.13043427 328.41138454 293.92513919 355.5860995 274.98139954 378.34503174 C259.76757841 396.13208444 242.14909399 409.48266253 221.91035461 421.14044189 C221.01195862 421.67097168 221.01195862 421.67097168 220.09541321 422.21221924 C191.91368679 438.78543159 137.65839882 462.39517107 103.91035461 456.14044189 C100.4028951 454.09442384 98.17075682 452.03623053 96.91035461 448.14044189 C96.38980168 444.14953608 96.74038875 442.44520827 98.72285461 438.89044189 C102.25911443 434.44485812 105.11048447 433.7619418 110.54316711 432.87872314 C111.90826328 432.64896427 113.2732491 432.41854909 114.63813782 432.18756104 C115.35522919 432.06833282 116.07232056 431.94910461 116.81114197 431.82626343 C132.16345848 429.24946379 147.05143724 425.83701489 161.91035461 421.14044189 C162.77338196 420.87151123 163.6364093 420.60258057 164.52558899 420.32550049 C191.78487186 411.70815179 218.15778107 398.86401046 239.91035461 380.14044189 C240.74687561 379.42936279 240.74687561 379.42936279 241.60029602 378.70391846 C258.81416598 363.94071975 273.51908531 344.13324777 276.91035461 321.14044189 C278.59629799 296.8350051 272.04443212 273.77341795 255.91035461 255.14044189 C253.29560897 252.41920789 250.62199444 249.76490833 247.91035461 247.14044189 C247.89633606 248.45480225 247.89633606 248.45480225 247.8820343 249.79571533 C247.83752003 253.10635544 247.77569168 256.41579788 247.70283508 259.72589111 C247.67493869 261.14732434 247.65357157 262.56890366 247.63935852 263.99053955 C247.46196718 280.74810805 242.84953477 294.49925874 231.30879211 306.96856689 C221.78545072 315.59230927 209.66561148 321.25366127 196.73433495 321.27186966 C195.70704509 321.2757108 194.67975524 321.27955195 193.62133539 321.28350949 C192.49946411 321.28264301 191.37759284 321.28177653 190.22172546 321.28088379 C189.02465017 321.28385491 187.82757488 321.28682603 186.59422457 321.28988719 C183.27467948 321.29705969 179.95518616 321.2997459 176.63563704 321.30048466 C173.05401644 321.30233792 169.47240699 321.30988669 165.89079285 321.31661987 C158.06002312 321.33019332 150.22925852 321.33622652 142.39847898 321.34063053 C137.50657893 321.34339492 132.61468085 321.34763266 127.72278214 321.3521347 C114.17222658 321.36432664 100.6216726 321.37462574 87.07111168 321.3780098 C85.7705593 321.37833915 85.7705593 321.37833915 84.44373313 321.37867515 C83.1401069 321.37900256 83.1401069 321.37900256 81.81014478 321.3793366 C80.04911446 321.37978006 78.28808415 321.38022662 76.52705383 321.38067627 C75.65352601 321.3808977 74.77999819 321.38111913 73.87999983 321.38134727 C59.73249869 321.38529348 45.58504911 321.40274243 31.43756787 321.42603579 C16.90426493 321.44977074 2.37098783 321.46221264 -12.1623348 321.46337771 C-20.31886502 321.46429333 -28.47532807 321.47001692 -36.63183975 321.48819733 C-43.57878946 321.50362733 -50.52565124 321.50870175 -57.47261484 321.50045922 C-61.01424462 321.4965628 -64.55569749 321.49743263 -68.0973053 321.51151657 C-71.94465049 321.52667577 -75.79174916 321.51835902 -79.63911438 321.50793457 C-80.74760132 321.51599097 -81.85608827 321.52404738 -82.99816573 321.53234792 C-98.15039523 321.43660781 -111.82893472 316.15460089 -122.83573914 305.62481689 C-131.65604716 295.90260562 -137.0304607 284.06059372 -137.40605164 270.96856689 C-137.42683273 270.28614929 -137.44761383 269.60373169 -137.46902466 268.90063477 C-137.53416591 266.73066833 -137.59323942 264.56058565 -137.65214539 262.39044189 C-137.69536435 260.91516968 -137.73897971 259.43990902 -137.78300476 257.96466064 C-137.88981057 254.35671023 -137.99117692 250.74863057 -138.08964539 247.14044189 C-143.43337142 252.26041585 -148.34729067 257.26822412 -152.33964539 263.51544189 C-152.96830505 264.48296387 -152.96830505 264.48296387 -153.60966492 265.47003174 C-165.03710928 283.4058219 -170.69666914 305.63988063 -166.25370789 326.76934814 C-158.54463806 357.13069369 -134.60413134 380.3057994 -108.46464539 395.95294189 C-106.61440025 397.02849188 -104.75624594 398.08684906 -102.88847351 399.13165283 C-101.14787339 400.10778743 -99.42308906 401.11195975 -97.69902039 402.11700439 C-61.33698471 422.58084061 -16.61293036 433.73834036 24.91035461 435.14044189 C23.92639709 434.18005005 23.92639709 434.18005005 22.92256165 433.20025635 C20.48252428 430.81147664 18.04948696 428.41598785 15.62080383 426.01568604 C14.57012572 424.98005459 13.51676554 423.94713664 12.46064758 422.91705322 C10.93927399 421.43224421 9.42795011 419.93780528 7.91816711 418.44122314 C7.00696106 417.54572754 6.095755 416.65023193 5.15693665 415.7276001 C1.94745565 412.03156988 0.88562382 409.52536625 0.97285461 404.64044189 C2.08758499 400.47878183 3.63009135 398.86066021 6.91035461 396.14044189 C10.01988841 394.585675 12.47302222 394.85399753 15.91035461 395.14044189 C22.06862608 398.49076127 26.70663745 403.64856299 31.61347961 408.57794189 C32.53248047 409.4950293 33.45148132 410.4121167 34.39833069 411.35699463 C36.33464029 413.29036885 38.26731956 415.22728055 40.19746399 417.16680908 C42.66764464 419.64841536 45.14674018 422.12089064 47.62860489 424.59080505 C50.00343448 426.95666325 52.37060804 429.33011956 54.73847961 431.70294189 C55.62803345 432.58844727 56.51758728 433.47395264 57.43409729 434.3862915 C58.25545166 435.2139502 59.07680603 436.04160889 59.92304993 436.89434814 C60.64663696 437.61952637 61.370224 438.34470459 62.11573792 439.09185791 C65.45775589 442.90682547 66.15050322 445.87055186 66.46894836 450.94512939 C64.75738044 457.67171101 57.73105779 461.74156311 52.41035461 465.51544189 C50.71760479 466.7362373 49.0262526 467.95897247 47.33613586 469.18341064 C46.45393372 469.82197998 45.57173157 470.46054932 44.66279602 471.11846924 C39.00920691 475.27165578 33.47488158 479.58608209 27.94160461 483.89776611 C17.65993049 491.82222697 17.65993049 491.82222697 12.75019836 492.39044189 C7.66033367 491.72154797 5.23741498 490.27406235 1.91035461 486.14044189 C0.43851212 483.19675691 0.62473591 480.880966 1.01972961 477.64825439 C2.87062669 472.4365179 7.65604339 469.40922203 11.91035461 466.14044189 C12.69281555 465.51395752 13.47527649 464.88747314 14.28144836 464.24200439 C19.5287525 460.14044189 19.5287525 460.14044189 21.91035461 460.14044189 C21.91035461 459.48044189 21.91035461 458.82044189 21.91035461 458.14044189 C20.99117249 458.17742187 20.99117249 458.17742187 20.05342102 458.21514893 C11.66022739 458.39804401 3.55231365 457.31007775 -4.71464539 456.01544189 C-5.43685272 455.90406891 -6.15906006 455.79269592 -6.90315247 455.677948 C-20.49361375 453.56659979 -33.8247572 450.80192613 -47.08964539 447.14044189 C-48.13636414 446.85330322 -49.18308289 446.56616455 -50.26152039 446.27032471 C-99.39044661 432.54923269 -151.67665145 406.10213966 -177.90214539 360.14044189 C-190.67230253 337.00434308 -194.72544018 310.81315744 -188.08964539 285.14044189 C-180.44816115 258.9499209 -163.6954697 237.58154917 -143.08964539 220.14044189 C-141.79976463 219.46785339 -141.79976463 219.46785339 -140.48382568 218.78167725 C-136.55237873 214.44454496 -137.42250856 209.58857353 -137.49369812 203.94317627 C-137.48963959 202.6939035 -137.48558105 201.44463074 -137.48139954 200.15750122 C-137.47587272 197.44061712 -137.47936142 194.72549211 -137.49806023 192.00883484 C-137.52719731 187.70362001 -137.51934501 183.39895315 -137.50616455 179.09368896 C-137.48549365 170.71931277 -137.50108295 162.34520156 -137.52163696 153.97084045 C-137.54676327 143.34087998 -137.55948964 132.71107221 -137.53168064 122.08110666 C-137.5217917 117.81243144 -137.53170338 113.54442067 -137.55758846 109.27581882 C-137.56689611 107.25081061 -137.56700413 105.22604229 -137.56318665 103.20101929 C-137.55870669 100.74700027 -137.56813127 98.29289309 -137.59524536 95.83901978 C-137.50492572 80.92009143 -131.56325792 68.1981382 -121.48808289 57.31231689 C-111.7975121 48.53714204 -99.74086609 43.15370811 -86.65678406 42.93511963 C-85.06570076 42.9052018 -85.06570076 42.9052018 -83.44247437 42.87467957 C-81.74221855 42.84961082 -81.74221855 42.84961082 -80.00761414 42.82403564 C-78.83829849 42.80325455 -77.66898285 42.78247345 -76.4642334 42.76106262 C-72.73526286 42.69576776 -69.00622292 42.6367753 -65.27714539 42.57794189 C-62.7465393 42.53473761 -60.21594019 42.49112271 -57.68534851 42.44708252 C-51.4868538 42.3401069 -45.28829032 42.23830341 -39.08964539 42.14044189 C-38.80657532 41.33050781 -38.52350525 40.52057373 -38.2318573 39.68609619 C-37.06546767 36.3691713 -35.85815379 33.06815915 -34.65214539 29.76544189 C-34.25060242 28.60915283 -33.84905945 27.45286377 -33.43534851 26.26153564 C-29.70105261 16.17038488 -24.51778935 8.23292471 -14.83964539 3.07794189 C-9.94765935 0.83178491 -5.36665172 0.01840601 0 0 Z M-9.36332703 27.90362549 C-11.12063932 31.19855498 -12.46994481 34.40824524 -13.71073914 37.92950439 C-14.17581904 39.21350891 -14.64132657 40.49735861 -15.10722351 41.78106689 C-15.82166044 43.77804722 -16.53103786 45.77654938 -17.23246765 47.77813721 C-17.91997096 49.72960544 -18.62657613 51.6733213 -19.33573914 53.61700439 C-19.9495343 55.35071289 -19.9495343 55.35071289 -20.57572937 57.1194458 C-22.33008093 60.62022733 -23.83974667 61.98780431 -27.08964539 64.14044189 C-29.93269348 64.63250732 -29.93269348 64.63250732 -33.08232117 64.62286377 C-34.86039658 64.63307556 -34.86039658 64.63307556 -36.6743927 64.64349365 C-37.94837921 64.63217407 -39.22236572 64.62085449 -40.53495789 64.60919189 C-41.8691051 64.6140251 -43.20324571 64.62118526 -44.53736877 64.6305542 C-49.47449006 64.6601019 -54.4113314 64.64709717 -59.34849548 64.63537598 C-63.51843252 64.62710776 -67.68773748 64.63538616 -71.85758591 64.664505 C-73.795472 64.67150414 -75.73339811 64.65477372 -77.67121887 64.63739014 C-88.81270305 64.7003727 -98.95659437 67.09637393 -107.08964539 75.14044189 C-113.02954384 82.39002843 -115.40248368 89.42698492 -115.3503418 98.83108521 C-115.35416734 99.57392262 -115.35799289 100.31676003 -115.36193436 101.08210766 C-115.37219789 103.55458803 -115.36828496 106.02683329 -115.36430359 108.49932861 C-115.36865376 110.27884128 -115.37383793 112.05835208 -115.37979126 113.83786011 C-115.39315999 118.66023132 -115.39376227 123.48252406 -115.39122796 128.30491018 C-115.39015676 132.3356219 -115.39504546 136.36631785 -115.39983338 140.39702618 C-115.41092132 149.90900363 -115.41137005 159.42094158 -115.40531921 168.93292236 C-115.39927991 178.7344278 -115.41159098 188.53578967 -115.43288928 198.33727062 C-115.45052251 206.76296968 -115.4565039 215.18862312 -115.45325154 223.61433995 C-115.45144121 228.64198978 -115.45404985 233.66953719 -115.46796608 238.69717026 C-115.48056772 243.42667695 -115.47857822 248.15596034 -115.46555519 252.88546371 C-115.46319491 254.61680172 -115.46590436 256.34815556 -115.47417831 258.0794754 C-115.52663942 269.91440173 -115.05975615 279.53269167 -107.17948914 289.06231689 C-99.40327224 296.79492883 -90.40486366 299.34878587 -79.75184846 299.4172529 C-78.66693045 299.41415569 -77.58201245 299.41105849 -76.46421814 299.40786743 C-74.71504455 299.4146641 -74.71504455 299.4146641 -72.93053412 299.42159808 C-69.70669314 299.43204465 -66.48299296 299.43357197 -63.25914049 299.43120933 C-59.77706853 299.43080023 -56.29502952 299.4418492 -52.81297302 299.45132446 C-45.99559543 299.46791554 -39.17825242 299.47343316 -32.36085632 299.47454922 C-26.81715738 299.47550063 -21.27346982 299.47961558 -15.72977448 299.48595047 C-0.00031491 299.50355805 15.72911741 299.51279015 31.4585869 299.51128952 C32.30601986 299.51120961 33.15345281 299.5111297 34.02656555 299.51104736 C34.87503745 299.5109656 35.72350935 299.51088384 36.59769252 299.5107996 C50.34416516 299.50998693 64.09052817 299.52912099 77.83696911 299.5573241 C91.96353666 299.58607758 106.09005079 299.59986302 120.21664834 299.59813654 C128.14289497 299.59747347 136.06902667 299.60292931 143.99524689 299.62449265 C150.7445463 299.64273696 157.49367869 299.64702524 164.24299213 299.6334738 C167.68342316 299.62696031 171.12353409 299.62676761 174.56393433 299.6441803 C178.30190467 299.65964571 182.03904007 299.65031451 185.7769928 299.63491821 C187.39098548 299.6503489 187.39098548 299.6503489 189.03758407 299.66609132 C199.50923419 299.57109176 209.32499449 296.64281121 216.91035461 289.14044189 C222.85025307 281.89085536 225.22319291 274.85389887 225.17105103 265.44979858 C225.17487657 264.70696117 225.17870212 263.96412376 225.18264359 263.19877613 C225.19290712 260.72629576 225.18899418 258.2540505 225.18501282 255.78155518 C225.18936299 254.00204251 225.19454716 252.22253171 225.20050049 250.44302368 C225.21386922 245.62065247 225.2144715 240.79835973 225.21193719 235.97597361 C225.21086599 231.94526188 225.21575469 227.91456594 225.22054261 223.88385761 C225.23163055 214.37188016 225.23207928 204.85994221 225.22602844 195.34796143 C225.21998914 185.54645599 225.23230021 175.74509412 225.25359851 165.94361317 C225.27123174 157.51791411 225.27721313 149.09226067 225.27396077 140.66654384 C225.27215044 135.63889401 225.27475907 130.6113466 225.28867531 125.58371353 C225.30127695 120.85420684 225.29928744 116.12492345 225.28626442 111.39542007 C225.28390414 109.66408207 225.28661359 107.93272823 225.29488754 106.20140839 C225.34734865 94.36648206 224.88046538 84.74819212 217.00019836 75.21856689 C207.42709534 65.69914482 196.86834894 64.8570462 184.05879211 64.86700439 C182.71313014 64.85843346 181.36747661 64.84842999 180.02183533 64.83706665 C174.33627739 64.79104458 168.65078032 64.76617608 162.96504211 64.75958252 C159.47487024 64.75456144 155.98525628 64.73029406 152.49527359 64.69425583 C150.52946992 64.67974923 148.56354411 64.68708415 146.59770203 64.6947937 C145.39940765 64.68153046 144.20111328 64.66826721 142.96650696 64.65460205 C141.915065 64.65175201 140.86362305 64.64890198 139.78031921 64.64596558 C136.16544568 64.00923153 134.5151965 62.68349501 131.91035461 60.14044189 C130.72893575 57.77095791 129.80221528 55.61973212 128.93769836 53.14434814 C128.68790726 52.47378891 128.43811615 51.80322968 128.18075562 51.11235046 C127.38848749 48.98093242 126.61666493 46.84292192 125.84785461 44.70294189 C125.07343293 42.56743006 124.29447562 40.43395903 123.50424194 38.304245 C123.01475911 36.98330401 122.5344066 35.6589303 122.06488037 34.33076477 C120.58080907 30.30340122 118.9685652 27.17350998 115.91035461 24.14044189 C110.44674896 21.66573365 105.1201113 21.85116442 99.24263 21.86578369 C98.18010513 21.86067276 97.11758026 21.85556183 96.02285767 21.85029602 C92.51785111 21.83641963 89.01304159 21.83735528 85.50801086 21.83966064 C83.06712776 21.83577282 80.62624533 21.83143797 78.18536377 21.82667542 C73.07194321 21.81921752 67.95859171 21.81950153 62.84516907 21.82476807 C56.29702235 21.83056388 49.74915836 21.81362661 43.20105839 21.79042339 C38.1609838 21.77568246 33.12097726 21.77481483 28.08088493 21.77793312 C25.66679257 21.77742015 23.25269638 21.77218703 20.83862495 21.7621212 C17.46138825 21.74976672 14.08470184 21.75654293 10.70747375 21.76812744 C9.71348572 21.7604837 8.71949768 21.75283997 7.69538879 21.7449646 C0.80732905 21.79711199 -4.73651903 22.2807099 -9.36332703 27.90362549 Z " fill="#000000" transform="translate(201.0896453857422,9.85955810546875)"/>
<path d="M0 0 C0.82242188 0.72832031 1.64484375 1.45664063 2.4921875 2.20703125 C3.12898437 2.76003906 3.76578125 3.31304687 4.421875 3.8828125 C20.04868805 18.39342462 28.55243335 40.2107393 29.6484375 61.19921875 C30.26628827 83.90523453 23.11963005 106.22545968 7.6171875 123.08203125 C-9.70664539 141.22348429 -31.0262633 150.85630196 -56.2578125 151.51953125 C-81.35836456 151.04593593 -103.07630285 141.20546778 -120.5078125 123.20703125 C-136.34035766 106.33322258 -143.13463727 83.97011592 -142.7578125 61.1015625 C-141.21070638 37.00054998 -130.60079598 15.2485798 -112.5078125 -0.79296875 C-79.76969036 -27.56258848 -32.2180723 -27.51770198 0 0 Z M-102.2578125 20.39453125 C-115.61568551 34.88217462 -120.76476325 51.38356499 -119.98828125 70.8515625 C-118.80431642 87.61495374 -110.6487467 101.76831243 -98.5078125 113.20703125 C-85.10430762 124.25039204 -69.25382623 129.79825765 -51.875 129.05078125 C-35.0521829 127.0937645 -18.26702493 119.71860034 -7.5078125 106.20703125 C4.48169164 90.24887591 8.68408033 74.17304647 6.4921875 54.20703125 C3.58450806 37.01302453 -6.80027302 22.60898919 -20.6953125 12.39453125 C-46.94152971 -5.39124014 -79.56006874 -0.21606366 -102.2578125 20.39453125 Z " fill="#000000" transform="translate(312.5078125,126.79296875)"/>
</svg>
