<?xml version="1.0" encoding="UTF-8"?>
<svg version="1.1" xmlns="http://www.w3.org/2000/svg" width="512" height="512">
<path d="M0 0 C1.33652542 -0.00648854 2.67304174 -0.01514885 4.00954068 -0.0257743 C7.65809683 -0.04846485 11.30601082 -0.04024937 14.9545877 -0.02663505 C18.89883498 -0.01734677 22.84295805 -0.0368941 26.78717041 -0.0526123 C34.50491047 -0.07865477 42.22241721 -0.0776243 49.94018446 -0.06657412 C56.21560905 -0.05800324 62.49096632 -0.0588563 68.76639175 -0.06637001 C69.66078922 -0.0674249 70.55518669 -0.06847979 71.47668711 -0.06956664 C73.29387101 -0.07173765 75.1110549 -0.07392443 76.92823876 -0.07612679 C93.95568149 -0.09554216 110.98299355 -0.08357301 128.01042558 -0.06134085 C142.60511682 -0.04309546 157.19955499 -0.05398882 171.79421997 -0.08564758 C188.75914442 -0.12244605 205.72391088 -0.13941901 222.68887532 -0.12623531 C224.49985001 -0.12489427 226.31082473 -0.12358528 228.12179947 -0.12230873 C229.01273277 -0.12167807 229.90366608 -0.1210474 230.82159736 -0.12039762 C237.08488797 -0.11737579 243.34805897 -0.12860682 249.61132431 -0.14555931 C257.25102102 -0.1659265 264.89036088 -0.16495062 272.53003918 -0.13692691 C276.42437299 -0.12319417 280.31808472 -0.11888265 284.21239471 -0.14087677 C287.78435471 -0.16078305 291.35514946 -0.15250681 294.92703022 -0.12268243 C296.81652192 -0.11392107 298.70608125 -0.1343468 300.59546745 -0.156151 C309.84721729 -0.03485094 318.04918081 2.25753064 324.85066116 8.84182245 C332.23847729 17.3031872 333.02719138 27.38816136 333.08963013 38.21195984 C333.11655693 39.9553212 333.11655693 39.9553212 333.14402771 41.73390198 C333.19779843 45.4114479 333.23192006 49.08886652 333.26541138 52.76664734 C333.29861373 55.27447743 333.33310605 57.78229079 333.368927 60.29008484 C333.45350566 66.40715808 333.52199497 72.5242485 333.57791138 78.64164734 C334.70559871 77.51893001 335.83257956 76.39550303 336.95925903 75.27177429 C337.58692169 74.64624161 338.21458435 74.02070892 338.86126709 73.3762207 C340.63411913 71.58485254 342.31706895 69.74628542 343.95291138 67.82914734 C348.84694328 62.15949878 353.88656581 56.62199646 358.90603638 51.06352234 C362.32096775 47.27689775 365.72777663 43.48581117 369.07791138 39.64164734 C373.94934341 34.05184745 378.93686288 28.56629836 383.90603638 23.06352234 C392.0816899 14.09787606 392.0816899 14.09787606 399.82791138 4.76664734 C401.90443189 2.24515814 403.57134209 0.80623268 406.84744263 0.27055359 C411.33582423 0.15334547 414.5663695 0.07587017 418.14041138 3.01664734 C421.1222821 6.22789274 421.70188037 7.54693451 421.71492577 11.77532578 C421.72253758 13.08202197 421.72253758 13.08202197 421.73030317 14.41511607 C421.73080093 15.37793474 421.73129868 16.34075342 421.73181152 17.33274841 C421.73619378 18.35111196 421.74057603 19.3694755 421.74509108 20.41869855 C421.75851532 23.85336818 421.76466606 27.28801214 421.77078247 30.72270203 C421.77868054 33.17628598 421.7869493 35.62986877 421.79556274 38.08345032 C421.8195488 45.46275629 421.83471536 52.84205804 421.84762281 60.22138965 C421.85133407 62.30520698 421.85530735 64.38902364 421.85937548 66.47284031 C421.88461148 79.40951818 421.90666739 92.34619708 421.91910362 105.28289413 C421.92203338 108.28008274 421.92499504 111.27727131 421.92800903 114.27445984 C421.92875508 115.01940867 421.92950113 115.76435749 421.93026979 116.53188053 C421.94292458 128.60077693 421.97614863 140.66952604 422.01781087 152.73835358 C422.06022234 165.1256428 422.08379774 177.51285661 422.08902419 189.90021825 C422.09243924 196.85671829 422.10420511 203.81298818 422.13712692 210.76941681 C422.1680428 217.3127677 422.1735487 223.85578987 422.16174316 230.39922714 C422.16152174 232.8026593 422.16988318 235.20610965 422.187397 237.609478 C422.20998809 240.88767687 422.20183914 244.16440664 422.18591309 247.44261169 C422.19979517 248.39650748 422.21367726 249.35040327 422.22798002 250.33320498 C422.17513868 254.73948206 421.99004638 257.71221707 419.16491127 261.21658707 C415.1276176 265.00115641 412.41632302 264.99592388 407.03884888 264.91117859 C401.27813307 264.28024305 398.06848628 259.05108554 394.52322388 254.90727234 C392.45122235 252.49409787 390.33392294 250.12783785 388.20291138 247.76664734 C387.06209106 246.50207703 387.06209106 246.50207703 385.89822388 245.21195984 C385.13252075 244.36375671 384.36681763 243.51555359 383.57791138 242.64164734 C382.07762459 240.97523883 380.57762265 239.30857381 379.07791138 237.64164734 C378.33541138 236.81664734 377.59291138 235.99164734 376.82791138 235.14164734 C352.07791138 207.64164734 352.07791138 207.64164734 349.84353638 205.15727234 C348.29373799 203.43646172 346.74153887 201.71781104 345.18728638 200.00102234 C344.40869263 199.13992859 343.63009888 198.27883484 342.82791138 197.39164734 C341.78377075 196.23922546 341.78377075 196.23922546 340.71853638 195.06352234 C338.27824609 192.30260997 335.9323473 189.47610446 333.57791138 186.64164734 C333.57204514 187.28342926 333.56617889 187.92521118 333.56013489 188.58644104 C333.49589519 195.30336707 333.41139835 202.01982746 333.31546021 208.7363739 C333.28233218 211.23858985 333.25426305 213.74087835 333.23147583 216.24320984 C333.19770686 219.85289753 333.14537864 223.46192758 333.08963013 227.07133484 C333.0832402 228.17903229 333.07685028 229.28672974 333.07026672 230.42799377 C332.87882339 240.6833368 331.21269919 250.24445666 323.57791138 257.64164734 C317.65682394 261.87494817 312.54078798 264.76110669 305.17667294 264.77866173 C304.04824661 264.78373627 302.91982029 264.78881081 301.75719923 264.79403913 C299.88953794 264.79478577 299.88953794 264.79478577 297.98414612 264.79554749 C296.66556754 264.79992974 295.34698896 264.80431199 293.98845345 264.80882704 C290.32042859 264.82079801 286.65241688 264.82644222 282.98437631 264.8310082 C279.03122683 264.8369624 275.07809309 264.84857279 271.12495422 264.85929871 C261.57324288 264.88382825 252.02152632 264.89845138 242.46979317 264.91135877 C239.77190649 264.91507053 237.07402032 264.91904378 234.37613416 264.92311144 C217.62295338 264.94834955 200.86977179 264.9704029 184.11657619 264.98283958 C180.23544245 264.98576929 176.35430873 264.98873095 172.47317505 264.991745 C171.02621568 264.99286407 171.02621568 264.99286407 169.55002481 264.99400575 C153.92732104 265.00665634 138.30473116 265.03987493 122.68208062 265.08154683 C106.64254058 265.12397993 90.60305882 265.14753628 74.56346279 265.15276015 C65.55789586 265.15617288 56.55250684 265.16791162 47.54699516 265.20086288 C39.87639878 265.22888359 32.20601679 265.23985393 24.5353732 265.22866742 C20.62315235 265.22348574 16.71138031 265.22633499 12.79922485 265.25113297 C9.21306647 265.27367424 5.62767802 265.27284879 2.0415057 265.25392909 C0.13924233 265.24981905 -1.76302607 265.27023902 -3.66517264 265.29171598 C-12.58510584 265.20947772 -19.13282288 263.20218537 -26.04318237 257.46586609 C-26.64259644 256.7607489 -27.2420105 256.05563171 -27.85958862 255.32914734 C-28.47704956 254.63176453 -29.0945105 253.93438171 -29.73068237 253.21586609 C-33.95510377 246.78655038 -34.86366437 240.87550253 -34.80303955 233.38139343 C-34.81005951 232.03203485 -34.81005951 232.03203485 -34.81722128 230.65541649 C-34.82913208 227.65848672 -34.81972934 224.66201754 -34.81027222 221.66508484 C-34.81433965 219.50942214 -34.8196825 217.35376153 -34.82620239 215.19810486 C-34.83986126 209.35520043 -34.83458316 203.51245519 -34.82506514 197.66954803 C-34.81746119 191.55005469 -34.8245162 185.43057482 -34.82922363 179.31108093 C-34.83467903 169.03517718 -34.82749519 158.75933814 -34.8132019 148.48344421 C-34.79687586 136.60913341 -34.80216451 124.73497715 -34.81868112 112.86067009 C-34.83230209 102.65918087 -34.83421264 92.45773813 -34.82636511 82.25624275 C-34.82169199 76.16615898 -34.82105391 70.07614781 -34.83097458 63.98606873 C-34.83965079 58.26013212 -34.83361014 52.53439446 -34.81629181 46.80847931 C-34.8123305 44.70906148 -34.8134549 42.60962687 -34.8200798 40.51021576 C-34.82829931 37.64055278 -34.81796859 34.77152402 -34.80303955 31.90190125 C-34.80973172 31.07465231 -34.81642388 30.24740337 -34.82331884 29.39508629 C-34.74840025 21.9509407 -32.90367999 15.65112736 -27.85958862 9.95414734 C-27.26017456 9.24903015 -26.6607605 8.54391296 -26.04318237 7.81742859 C-17.93522962 1.08698197 -10.30848029 -0.08823708 0 0 Z M-21.67208862 17.14164734 C-26.46936238 23.99489556 -26.57222911 31.02870252 -26.55580139 39.16749573 C-26.55806695 40.00017129 -26.5603325 40.83284685 -26.56266671 41.69075501 C-26.56897196 44.46720608 -26.56817959 47.24360789 -26.56735229 50.02006531 C-26.57034593 52.01632246 -26.57374893 54.01257903 -26.57752991 56.00883484 C-26.58635266 61.42207822 -26.58870728 66.83530578 -26.58934569 72.24855566 C-26.5900571 75.63252902 -26.59219312 79.01649837 -26.59484291 82.40047073 C-26.60409015 94.21149704 -26.60817852 106.02251207 -26.60739136 117.83354187 C-26.60679051 128.8347064 -26.61734528 139.8358219 -26.63313502 150.83697402 C-26.64621857 160.29025849 -26.65157492 169.74352693 -26.65093595 179.19682038 C-26.65068123 184.83925293 -26.65351811 190.48164189 -26.664114 196.1240654 C-26.67380883 201.43135011 -26.67386462 206.73854966 -26.66659737 212.0458374 C-26.6655533 213.99003346 -26.66790383 215.93423487 -26.67395782 217.87842178 C-26.68170585 220.53965777 -26.67701445 223.2006017 -26.66932678 225.86183167 C-26.67447035 226.62459471 -26.67961391 227.38735775 -26.68491334 228.17323482 C-26.63431239 236.1418372 -25.5723237 243.31421567 -20.42208862 249.64164734 C-14.07108313 255.35755228 -8.35661882 256.76173354 0.11403275 256.7730751 C1.19618128 256.77691625 2.27832982 256.78075739 3.39327073 256.78471494 C4.57127551 256.78384845 5.74928029 256.78298197 6.96298218 256.78208923 C8.22287075 256.78506036 9.48275932 256.78803148 10.78082633 256.79109263 C14.27105451 256.79913949 17.7612621 256.80095091 21.25149846 256.8016901 C25.01849621 256.80354467 28.78548337 256.81109398 32.55247498 256.81782532 C40.78599814 256.83139219 49.01951642 256.83743064 57.2530489 256.84183598 C62.39604355 256.84460089 67.53903634 256.84883867 72.68202972 256.85334015 C86.92747505 256.86553011 101.17291887 256.87583032 115.41836929 256.87921524 C116.32963482 256.87943481 117.24090035 256.87965437 118.17977999 256.87988059 C119.09319573 256.88009887 120.00661146 256.88031715 120.94770646 256.88054204 C122.79856253 256.8809855 124.64941859 256.88143207 126.50027466 256.88188171 C127.41835851 256.88210314 128.33644236 256.88232457 129.28234693 256.88255271 C144.15794311 256.88650059 159.03349029 256.90395551 173.90906754 256.92724124 C189.18933541 256.95096701 204.46957871 256.96341763 219.74986529 256.96458316 C228.32609143 256.96549917 236.9022537 256.97123297 245.47846222 256.98940277 C252.78114571 257.00482022 260.0837456 257.00991448 267.38644227 257.00166467 C271.11022583 256.99776413 274.8338411 256.99865849 278.55760384 257.01272202 C282.60015877 257.02784953 286.64233629 257.01957696 290.68490601 257.00914001 C291.8539879 257.01719642 293.02306979 257.02525282 294.2275784 257.03355336 C303.91583985 256.97511905 312.07774595 255.9452542 319.10525513 248.84867859 C323.18325114 242.73709305 324.01888392 236.82546734 323.9588623 229.68510437 C323.96354228 228.8182004 323.96822225 227.95129642 323.97304404 227.05812263 C323.98494918 224.17174312 323.97555438 221.28584234 323.96609497 218.39945984 C323.97016266 216.32261377 323.97550565 214.24576987 323.98202515 212.16893005 C323.995681 206.5408928 323.99040717 200.91302085 323.98088789 195.28498077 C323.97328238 189.38970501 323.98033939 183.49444321 323.98504639 177.59916687 C323.99050133 167.69988977 323.98331915 157.80067986 323.96902466 147.90141296 C323.95269869 136.46335274 323.95798738 125.02545296 323.97450387 113.58739662 C323.98812615 103.75957683 323.99003476 93.93180529 323.98218787 84.10397911 C323.97751545 78.23745978 323.9768747 72.37101581 323.98679733 66.50450134 C323.99547545 60.98868057 323.98942945 55.47306627 323.97211456 49.95726776 C323.96815427 47.93525281 323.96927592 45.91322043 323.97590256 43.89121246 C323.98412613 41.12663866 323.9737866 38.36272246 323.9588623 35.59819031 C323.96555447 34.80206896 323.97224663 34.00594761 323.97914159 33.18570137 C323.9084365 26.41208046 322.45121775 19.81346286 317.51541138 14.82914734 C309.93828688 8.10341829 300.35377322 8.20645041 290.69836426 8.26742554 C289.43364686 8.26345113 288.16892946 8.25947672 286.86588728 8.25538188 C283.38074927 8.24486092 279.89587021 8.25288076 276.41074371 8.26413238 C272.64248585 8.27301433 268.87426042 8.26451945 265.10600281 8.25827026 C257.73454828 8.24880396 250.36319196 8.25536276 242.99174474 8.26753321 C234.40252126 8.28118382 225.81332091 8.27951269 217.22408934 8.27739988 C201.89734844 8.27421325 186.5706541 8.28585965 171.243927 8.3054657 C156.37965478 8.3244751 141.51543708 8.33155109 126.65115356 8.32597351 C110.45246011 8.31991316 94.2537906 8.32009697 78.05509913 8.33145934 C76.32732749 8.3326666 74.59955585 8.33387259 72.87178421 8.33507729 C72.02174971 8.33568082 71.17171521 8.33628436 70.29592209 8.33690619 C64.31182509 8.34078198 58.32773702 8.34039305 52.34363937 8.33849144 C45.05051419 8.33636748 37.7574367 8.34160897 30.46432494 8.35610499 C26.74485376 8.3633389 23.02545199 8.36743455 19.30597496 8.36286163 C15.27174536 8.35802243 11.23770515 8.36871796 7.20349121 8.38095093 C6.03131212 8.3771716 4.85913302 8.37339228 3.65143335 8.36949843 C-6.32940154 8.4230925 -14.61139864 9.29643625 -21.67208862 17.14164734 Z M406.56228638 11.32914734 C405.82494263 12.09227234 405.08759888 12.85539734 404.32791138 13.64164734 C403.52869263 14.4679364 402.72947388 15.29422546 401.90603638 16.14555359 C399.3401221 18.89659255 396.84127259 21.6903263 394.39041138 24.54399109 C392.31940797 26.94082046 390.2018792 29.29164916 388.07791138 31.64164734 C385.40742793 34.60034485 382.75493079 37.57091206 380.14041138 40.57914734 C376.48854085 44.77329098 372.73524954 48.87259026 368.98806763 52.98149109 C366.40552254 55.83191768 363.87136034 58.71990626 361.34744263 61.62211609 C357.0392139 66.5390129 352.63104982 71.36803766 348.24978638 76.21977234 C344.69740236 80.1588104 341.1513064 84.10304055 337.64041138 88.07914734 C336.82250122 89.00533875 336.82250122 89.00533875 335.98806763 89.95024109 C332.56219959 94.05938475 332.28375286 96.54808345 332.14456177 101.82841492 C332.12338791 102.55738983 332.10221405 103.28636475 332.08039856 104.03742981 C331.87460922 111.68864523 331.78949432 119.34344851 331.71292114 126.99687195 C331.67300448 130.61706247 331.59672807 134.23359526 331.48733521 137.8523407 C331.35495347 142.23944482 331.28846714 146.62316511 331.26663017 151.01216698 C331.24783714 152.67286766 331.20698545 154.33348981 331.14229012 155.99303627 C330.82062664 164.71115809 331.19706617 170.92430435 337.14565945 177.67427349 C339.38057768 179.97379205 341.69050131 182.15848073 344.08775139 184.28760338 C345.9552216 185.98449283 347.58821846 187.83029102 349.20291138 189.76664734 C352.095362 193.11958761 355.07834466 196.38474514 358.07791138 199.64164734 C361.72213298 203.60019534 365.31705041 207.59341709 368.84353638 211.65727234 C372.37291852 215.69539425 375.98425364 219.66079415 379.57791138 223.64164734 C381.07819817 225.30805585 382.5782001 226.97472087 384.07791138 228.64164734 C384.82041138 229.46664734 385.56291138 230.29164734 386.32791138 231.14164734 C388.57791138 233.64164734 390.82791138 236.14164734 393.07791138 238.64164734 C393.81138794 239.45633484 394.5448645 240.27102234 395.30056763 241.11039734 C396.89285094 242.88020795 398.48389624 244.65113282 400.07400513 246.42289734 C401.28250122 247.76867859 401.28250122 247.76867859 402.51541138 249.14164734 C403.24630981 249.95633484 403.97720825 250.77102234 404.73025513 251.61039734 C405.98019328 252.98453653 407.26440388 254.32813984 408.57791138 255.64164734 C410.67082295 255.55593073 410.67082295 255.55593073 412.57791138 254.64164734 C413.48418692 251.92282071 413.7038131 250.35865612 413.70654583 247.5667429 C413.7113825 246.31791115 413.7113825 246.31791115 413.71631688 245.04385048 C413.71476828 244.12927179 413.71321967 243.2146931 413.71162415 242.2723999 C413.71502248 240.81496019 413.71502248 240.81496019 413.71848947 239.32807726 C413.72484236 236.05767007 413.72399928 232.78730418 413.72317505 229.51689148 C413.72616571 227.17814073 413.72956803 224.83939047 413.73335266 222.50064087 C413.74220576 216.13711389 413.74453131 209.77360034 413.74516845 203.4100678 C413.74599708 198.77223027 413.74889446 194.13439576 413.75200493 189.4965593 C413.76031228 177.02984407 413.76404685 164.56313599 413.76333519 152.09641809 C413.76327526 151.03418132 413.76327526 151.03418132 413.76321411 149.95048523 C413.76315279 148.88695438 413.76315279 148.88695438 413.76309023 147.80193805 C413.76268365 136.30733293 413.772256 124.81276054 413.78635248 113.31816489 C413.80070642 101.5207188 413.80762322 89.72328869 413.8067587 77.92583364 C413.80642641 71.30037718 413.80938114 64.6749509 413.81993675 58.04950142 C413.82958936 51.82055804 413.82971647 45.59168735 413.82242012 39.36274147 C413.82137077 37.07297408 413.82375778 34.78320224 413.82978058 32.49344254 C413.83745402 29.37483459 413.8328866 26.25648057 413.82514954 23.13787842 C413.8302931 22.22553045 413.83543666 21.31318248 413.84073609 20.3731876 C413.8361373 19.53802536 413.8315385 18.70286311 413.82680035 17.84239292 C413.82701771 17.12255051 413.82723508 16.4027081 413.82745904 15.66105229 C413.53773834 13.3165566 412.73561018 11.68487867 411.57791138 9.64164734 C408.52316287 9.32067901 408.52316287 9.32067901 406.56228638 11.32914734 Z " fill="#000000" transform="translate(62.422088623046875,123.35835266113281)"/>
</svg>
