<?xml version="1.0" encoding="UTF-8"?>
<svg version="1.1" xmlns="http://www.w3.org/2000/svg" width="512" height="512">
<path d="M0 0 C0.93379982 -0.0055344 1.86759964 -0.01106879 2.82969642 -0.0167709 C5.93091149 -0.03028703 9.03130905 -0.01545712 12.13250732 -0.00050354 C14.36739949 -0.0042901 16.60228931 -0.00979291 18.83717346 -0.01687622 C24.88908151 -0.03080724 30.94070448 -0.01967588 36.99259663 -0.00316501 C43.34015927 0.01072091 49.68770595 0.00422112 56.03527832 0.0007019 C66.69778647 -0.0019982 77.3601705 0.01136714 88.02264404 0.03465271 C98.96572049 0.05854804 109.90864776 0.06566467 120.85174561 0.05516052 C134.07097846 0.04249409 147.29012524 0.0450794 160.50936127 0.06081963 C165.54409145 0.06655707 170.57877163 0.06651437 175.6135025 0.06175423 C181.55289374 0.05695652 187.49208035 0.06720131 193.43143272 0.08870888 C195.60250598 0.09424002 197.77359904 0.09477613 199.94467354 0.08975601 C221.08493389 0.04703073 238.50410933 3.02804462 256.19793701 15.50120544 C256.8102417 15.92659607 257.42254639 16.35198669 258.05340576 16.79026794 C272.93570001 28.31432477 281.03478261 46.39802452 284.19793701 64.50120544 C284.70626049 69.96023797 284.74816911 75.37167914 284.71551514 80.84642029 C284.72095386 82.40889635 284.72808619 83.97136726 284.73675537 85.53382874 C284.75477512 89.7236331 284.74801348 93.91303746 284.73523903 98.10284758 C284.72501 102.51303796 284.73453087 106.92319735 284.74078369 111.33338928 C284.74802701 118.72841967 284.73855532 126.12328938 284.71942139 133.51829529 C284.69761056 142.04593546 284.70474781 150.57319361 284.72672701 159.10082471 C284.74491829 166.45584057 284.74742261 173.81074194 284.73697233 181.16577303 C284.73076405 185.54444619 284.72982881 189.92294006 284.74311829 194.30160141 C284.75473254 198.41411248 284.74655036 202.52613327 284.72354126 206.63859177 C284.71828584 208.1405252 284.71971321 209.64250043 284.72859192 211.14441681 C284.78036342 220.79683737 284.03362347 228.95704729 278.40887451 237.08714294 C277.80301514 237.67753357 277.19715576 238.26792419 276.57293701 238.87620544 C275.68735107 239.78499451 275.68735107 239.78499451 274.78387451 240.71214294 C267.82311394 245.52789573 260.70619365 247.09613593 252.37136841 247.00914001 C251.43489617 247.01537998 250.49842393 247.02161994 249.53357375 247.02804899 C246.42322228 247.0438909 243.31366415 247.03140895 240.20330811 247.01878357 C237.96180772 247.02420881 235.72031091 247.03133372 233.4788208 247.0400238 C227.40819496 247.05821837 221.33784188 247.05120374 215.26721144 247.03850746 C208.89789078 247.02835233 202.52859286 247.03778082 196.15927124 247.04405212 C184.7732335 247.05178978 173.3873461 247.03938169 162.00133379 247.01901478 C151.70824567 247.00117137 141.41533822 247.00422836 131.12225342 247.02268982 C119.13955084 247.04417201 107.15695777 247.0520217 95.17422926 247.04024076 C88.84245132 247.03403003 82.51079736 247.03310261 76.17902756 247.04638672 C70.21824644 247.05801902 64.25780309 247.04978543 58.29705811 247.02680969 C56.12037336 247.02156039 53.94365977 247.0229708 51.76698685 247.03186035 C36.41199673 247.0887438 21.7392765 246.22629044 7.88543701 238.81370544 C7.22720947 238.47049255 6.56898193 238.12727966 5.89080811 237.77366638 C-10.58214351 228.87610237 -23.0064685 214.21968178 -28.81165981 196.40258503 C-31.60876684 186.80537818 -32.38259432 177.86049046 -32.33551025 167.90232849 C-32.34258902 166.30059015 -32.35134215 164.69885848 -32.36161804 163.09713745 C-32.38389121 158.79572646 -32.38122647 154.49468715 -32.37229657 150.19324088 C-32.36714735 146.58719469 -32.37451007 142.98121596 -32.38176864 139.37517673 C-32.39869414 130.86691333 -32.39527255 122.35882964 -32.378479 113.85057068 C-32.36152488 105.09738704 -32.37745393 96.34470095 -32.40970188 87.59157151 C-32.43644086 80.04549038 -32.44366336 72.49956373 -32.4351868 64.95344001 C-32.43027507 60.45956687 -32.43237921 55.96599354 -32.45297432 51.47215843 C-32.47140234 47.25042748 -32.46528676 43.02941141 -32.44077492 38.80771828 C-32.43579146 37.26546709 -32.4391923 35.72316068 -32.45192337 34.18095398 C-32.52571437 24.46910585 -31.8061056 16.37702903 -25.28035831 8.71439648 C-18.25716338 2.01839065 -9.43694588 -0.10634367 0 0 Z " fill="#000000" transform="translate(68.80206298828125,132.49879455566406)"/>
<path d="M0 0 C5.77441941 3.27279797 8.66496548 8.26743097 11.5625 14.0625 C11.66923096 16.82370794 11.71471569 19.56018382 11.71640015 22.32202148 C11.72297353 23.61869625 11.72297353 23.61869625 11.7296797 24.94156647 C11.7430979 27.8555777 11.74925342 30.76955868 11.75537109 33.68359375 C11.7632699 35.76616046 11.77153871 37.84872579 11.78015137 39.93128967 C11.80640463 46.78751309 11.82168571 53.64374271 11.8359375 60.5 C11.84129647 62.85921228 11.84667398 65.21842452 11.85206985 67.57763672 C11.87370647 77.39305085 11.89244213 87.20846331 11.90369225 97.02389526 C11.91992251 111.09265785 11.95306923 125.16114383 12.01009309 139.22980213 C12.04881124 149.11951355 12.06832738 159.00915106 12.07361281 168.89893627 C12.07726464 174.80594926 12.08926792 180.71266746 12.12171555 186.61959839 C12.15182751 192.18136925 12.15809656 197.74266746 12.14633179 203.30450249 C12.14611129 205.34181926 12.15439615 207.37915815 12.17198563 209.416399 C12.3366364 229.59109626 12.3366364 229.59109626 6.5625 237.0625 C4.24609375 239.31640625 4.24609375 239.31640625 2 240.625 C1.25621094 241.08003906 0.51242187 241.53507813 -0.25390625 242.00390625 C-6.30851233 244.93914462 -13.48005462 245.17008692 -19.921875 243.3671875 C-26.80762845 240.3293551 -31.86531456 235.25333413 -37.21484375 230.109375 C-40.00534601 227.43407316 -42.91384371 224.97438304 -45.9375 222.5625 C-50.70019211 218.74127028 -55.15348118 214.67053168 -59.60595703 210.49951172 C-62.90945262 207.42256386 -66.28170553 204.5058493 -69.8125 201.6875 C-74.44678223 197.93366315 -78.94830656 194.0575294 -83.375 190.0625 C-84.01421387 189.5051416 -84.65342773 188.9477832 -85.31201172 188.37353516 C-91.16504197 183.0112339 -94.50518993 177.05164052 -94.94543457 169.01660156 C-94.96890201 167.16225508 -94.97097253 165.30755186 -94.95507812 163.453125 C-94.96559204 161.92202087 -94.96559204 161.92202087 -94.97631836 160.35998535 C-94.99381781 157.01054079 -94.98230374 153.66195206 -94.96875 150.3125 C-94.97144721 147.97037597 -94.97533154 145.62825303 -94.98034668 143.28613281 C-94.98623086 138.3872609 -94.9777133 133.48868154 -94.95898438 128.58984375 C-94.93619594 122.32546702 -94.94932477 116.06177592 -94.97327423 109.79742432 C-94.98776119 104.96397785 -94.98311284 100.13069266 -94.97276306 95.29724121 C-94.97010381 92.98807696 -94.97333718 90.67889785 -94.98268127 88.36975098 C-94.9928943 85.13673379 -94.97727833 81.90481114 -94.95507812 78.671875 C-94.96722351 77.25485291 -94.96722351 77.25485291 -94.97961426 75.8092041 C-94.88742393 68.52452224 -93.12003362 62.59938175 -88.68359375 56.75 C-88.08675781 56.193125 -87.48992187 55.63625 -86.875 55.0625 C-86.17632812 54.40765625 -85.47765625 53.7528125 -84.7578125 53.078125 C-81.38324191 50.14667984 -77.91222611 47.3437464 -74.42578125 44.546875 C-71.1523686 41.82544958 -68.04185327 38.97294579 -64.9375 36.0625 C-61.06295569 32.43281326 -57.14848187 28.94500385 -53 25.625 C-48.60116016 22.09823336 -44.47627427 18.36196894 -40.375 14.5 C-16.9823953 -7.46196157 -16.9823953 -7.46196157 0 0 Z " fill="#000000" transform="translate(463.4375,134.9375)"/>
</svg>
